<?xml version="1.0" encoding="utf-8"?>
<!-- Generator: Adobe Illustrator 26.4.1, SVG Export Plug-In . SVG Version: 6.00 Build 0)  -->
<svg version="1.1" id="Livello_1" xmlns="http://www.w3.org/2000/svg" xmlns:xlink="http://www.w3.org/1999/xlink" x="0px" y="0px"
	 viewBox="0 0 20 20" style="enable-background:new 0 0 20 20;" xml:space="preserve">
<style type="text/css">
	.st0{fill:none;stroke:#FFFFFF;stroke-width:0.7521;stroke-linecap:round;stroke-miterlimit:10;}
	.st1{fill:#FFFFFF;stroke:#FFFFFF;stroke-width:0.2793;stroke-miterlimit:10;}
	.st2{fill:none;stroke:#FFFFFF;stroke-width:0.2793;stroke-miterlimit:10;}
</style>
<path class="st0" d="M5.8,8C6,8,6.1,8,6.3,7.9 M4.8,8.4c-1.6,0.8-2.7,2.5-2.7,4.4c0,2.7,2.2,5,5,5c1.9,0,3.6-1.1,4.4-2.8 M9.2,0.4
	c-1.1,0-2,0.9-2,2s0.9,2,2,2s2-0.9,2-2S10.3,0.4,9.2,0.4z M16.4,14.8l0.3,0.6 M16,13.9l-0.5-1.2c-0.4-0.9-1.3-0.9-1.3-0.9h-3.4V7.1
	c0-0.9-0.7-1.6-1.6-1.6c-0.9,0-1.6,0.7-1.6,1.6v5.8C7.5,13.5,8,14,8.6,14h4.8l2.2,4.9c0.3,0.6,1,0.9,1.6,0.6c0.6-0.3,0.9-1,0.6-1.6
	L17,16.2"/>
<path class="st1" d="M7.4,11c-0.1-0.2-0.1-0.4,0-0.6c-0.1-0.2-0.1-0.4-0.1-0.6C7.2,9.7,7.1,9.5,7.2,9.4c-1.4,0-2.3-0.7-2.3-0.7
	c2.3,1.7,2.4,4.2,2.4,4.2c0-0.4,0.1-0.8,0.2-1.1C7.3,11.5,7.3,11.2,7.4,11z"/>
<path class="st1" d="M2.5,12.9c0,0,2.3-1.2,2.4-4.1c0,0,0.1,2.7,2.4,4.1C7.2,12.8,5,11.7,2.5,12.9L2.5,12.9z"/>
<path class="st1" d="M2.4,12.9c0,0,2.2,1.3,4.8-0.1c0,0-2.3,1.5-2.3,4.2C4.9,17,4.8,14.4,2.4,12.9L2.4,12.9z"/>
<path class="st1" d="M9.6,16.8c0,0-2.1-1.3-4.7,0.2c0,0,2.3-1.3,2.3-4.1C7.2,12.9,7.2,15.3,9.6,16.8z"/>
<path class="st2" d="M7.7,13.1c-0.3-0.1-0.4-0.2-0.5-0.3c0.2,0.1,0.4,0.3,0.5,0.4C7.7,13.2,7.7,13.1,7.7,13.1z"/>
<path class="st1" d="M10.5,13.8c-0.1,0.1-0.2,0.1-0.4,0.1c-0.2,0-0.4,0.1-0.5,0c-0.1,0.1-0.2,0-0.4,0c-0.1,0-0.2,0-0.3,0
	c0,0-0.1,0-0.2,0c-0.1,0-0.2,0-0.2,0c0,0-0.1,0-0.1,0c0,0,0,0,0,0c1.2,1.4,1.2,2.9,1.2,2.9c0-1.3,0.5-2.3,1-2.9
	C10.6,13.8,10.5,13.8,10.5,13.8L10.5,13.8z"/>
</svg>
