<?xml version="1.0" encoding="utf-8"?>
<!-- Generator: Adobe Illustrator 26.4.1, SVG Export Plug-In . SVG Version: 6.00 Build 0)  -->
<svg version="1.1" id="Livello_1" xmlns="http://www.w3.org/2000/svg" xmlns:xlink="http://www.w3.org/1999/xlink" x="0px" y="0px"
	 viewBox="0 0 20 20" style="enable-background:new 0 0 20 20;" xml:space="preserve">
<style type="text/css">
	.st0{fill:#EDC365;stroke:#EDC365;stroke-width:0.1368;stroke-miterlimit:10;}
	.st1{fill:none;stroke:#EDC365;stroke-width:0.1368;stroke-miterlimit:10;}
	.st2{fill:#EDC365;}
</style>
<g>
	<path class="st0" d="M0.4,19.8h19.1c0.1,0,0.3-0.1,0.3-0.3v-5.4c0-0.1-0.1-0.3-0.3-0.3h-1.1V10c0-0.1-0.1-0.3-0.3-0.3h-5.7
		c1-0.6,1.9-1.8,2.3-3.2c0.4-1.3,0.3-2.5-0.2-3.5c-0.4-0.7-1-1.2-1.8-1.4C12,1.4,11,1.5,10.2,2.1c0-0.5,0.2-1.3,0.9-1.4
		c0.1,0,0.2-0.2,0.2-0.3c0-0.1-0.2-0.2-0.3-0.2C10,0.5,9.8,1.5,9.7,2.1C9,1.5,8,1.4,7.1,1.6C6.3,1.8,5.7,2.3,5.3,3
		C4.8,4,4.8,5.2,5.2,6.5C5.6,8,6.5,9.1,7.5,9.7H1.8c-0.1,0-0.3,0.1-0.3,0.3v3.9H0.4c-0.1,0-0.3,0.1-0.3,0.3v5.4
		C0.2,19.7,0.3,19.8,0.4,19.8L0.4,19.8z M5.7,6.4C5.3,5.2,5.4,4.1,5.8,3.3c0.3-0.6,0.8-1,1.5-1.2C7.5,2.1,7.7,2,8,2
		c0.7,0,1.3,0.3,1.9,0.8l0,0c0,0,0,0,0.1,0c0,0,0,0,0,0c0,0,0.1,0,0.1,0l0,0c0,0,0,0,0,0c0,0,0,0,0,0c0,0,0,0,0.1,0c0,0,0,0,0,0
		c0,0,0,0,0,0c0.7-0.7,1.7-1,2.6-0.7c0.6,0.2,1.2,0.6,1.5,1.2c0.4,0.8,0.5,1.9,0.1,3.1c-0.7,2.2-2.4,3.7-3.9,3.3
		c-0.1,0-0.2-0.1-0.4-0.1c-0.1,0-0.2,0-0.2,0C9.8,9.6,9.7,9.6,9.5,9.7C8.1,10.1,6.3,8.6,5.7,6.4L5.7,6.4z M2,10.2H18v3.7H2L2,10.2
		L2,10.2z M0.7,14.4h18.6v4.9H0.7V14.4z"/>
	<path class="st0" d="M10.8,15.1H1.6c-0.1,0-0.3,0.1-0.3,0.3v3c0,0.1,0.1,0.3,0.3,0.3h9.3c0.1,0,0.3-0.1,0.3-0.3v-3
		C11.1,15.2,11,15.1,10.8,15.1z M1.8,15.6h2.4v2.5H1.8C1.8,18.1,1.8,15.6,1.8,15.6z M10.6,18.1H4.7v-2.5h5.9L10.6,18.1L10.6,18.1z"
		/>
	<path class="st0" d="M12.1,3.8c0.3,0.1,0.5,0.3,0.6,0.5c0.2,0.4,0.2,0.8,0,1.3c0,0.1,0,0.3,0.2,0.3c0,0,0,0,0.1,0
		c0.1,0,0.2-0.1,0.2-0.2c0.2-0.6,0.2-1.3-0.1-1.7c-0.2-0.4-0.5-0.6-0.9-0.7c-0.1,0-0.3,0-0.3,0.2C11.9,3.6,12,3.7,12.1,3.8z"/>
	<path class="st0" d="M3.6,11.3c-0.1,0-0.3,0.1-0.3,0.3v1c0,0.1,0.1,0.3,0.3,0.3c0.1,0,0.3-0.1,0.3-0.3v-1
		C3.9,11.4,3.7,11.3,3.6,11.3z"/>
	<path class="st0" d="M4.8,11.3c-0.1,0-0.3,0.1-0.3,0.3v1c0,0.1,0.1,0.3,0.3,0.3S5,12.7,5,12.6v-1C5,11.4,4.9,11.3,4.8,11.3z"/>
	<path class="st0" d="M13,11.8H7.1c-0.1,0-0.3,0.1-0.3,0.3c0,0.1,0.1,0.3,0.3,0.3H13c0.1,0,0.3-0.1,0.3-0.3
		C13.2,11.9,13.1,11.8,13,11.8z"/>
</g>
<circle class="st1" cx="16.7" cy="16.7" r="1.5"/>
<path class="st2" d="M16,15.4c0,0,0.7,0.5,1.5,0c0,0-0.7,0.4-0.7,1.3C16.8,16.8,16.7,16,16,15.4L16,15.4z"/>
<path class="st2" d="M17.5,15.4c0,0-0.1,0.8,0.7,1.3c0,0-0.7-0.4-1.5,0C16.8,16.7,17.4,16.3,17.5,15.4L17.5,15.4z"/>
<path class="st2" d="M15.2,16.7c0,0,0.7-0.4,0.8-1.3c0,0,0,0.9,0.8,1.3C16.8,16.7,16,16.4,15.2,16.7z"/>
<path class="st2" d="M15.2,16.8c0,0,0.7,0.4,1.5,0c0,0-0.7,0.5-0.7,1.3C16,18.1,16,17.2,15.2,16.8L15.2,16.8z"/>
<path class="st2" d="M17.5,18c0,0-0.7-0.4-1.5,0.1c0,0,0.7-0.4,0.7-1.3C16.8,16.8,16.7,17.5,17.5,18L17.5,18z"/>
<path class="st2" d="M16.7,16.7c0,0,0.7,0.5,1.5,0c0,0-0.7,0.4-0.7,1.3C17.5,18,17.5,17.2,16.7,16.7z"/>
</svg>
