<?xml version="1.0" encoding="utf-8"?>
<!-- Generator: Adobe Illustrator 26.4.1, SVG Export Plug-In . SVG Version: 6.00 Build 0)  -->
<svg version="1.1" id="Livello_1" xmlns="http://www.w3.org/2000/svg" xmlns:xlink="http://www.w3.org/1999/xlink" x="0px" y="0px"
	 viewBox="0 0 20 20" style="enable-background:new 0 0 20 20;" xml:space="preserve">
<style type="text/css">
	.st0{fill:#B5C99A;stroke:#B5C99A;stroke-width:0.1986;stroke-miterlimit:10;}
	.st1{fill:#B5C99A;stroke:#B5C99A;stroke-width:0.3659;stroke-miterlimit:10;}
</style>
<path class="st0" d="M19.8,10.6l-1.4-2.7c-0.3-0.7-0.6-1.3-1-1.7c-0.7-0.8-1.7-0.7-1.7-0.7c0.6-0.4,1-1.1,1-1.9c0-1.2-1-2.2-2.2-2.2
	s-2.2,1-2.2,2.2c0,0.8,0.4,1.5,1,1.9c0,0-0.7-0.1-1.3,0.4c-0.6-0.4-1.3-0.4-1.3-0.4c0.6-0.4,1-1.1,1-1.9c0-1.2-1-2.2-2.2-2.2
	s-2.2,1-2.2,2.2c0,0.8,0.4,1.5,1,1.9c0,0-1-0.1-1.7,0.8C6.3,6.4,6,7.1,5.6,7.8C5.7,7,5.2,6,4,6C3.1,6,2.3,6.7,2.3,7.6
	c0,0.5,0.2,1,0.7,1.3c-1,0-1.5,0.9-1.9,1.8l-0.9,1.8c-0.1,0.3-0.2,0.9,0.4,1.2c1,0.4,1.3-0.6,1.3-0.6l-0.6,2.4h1v2
	c0,0.5,0.4,0.9,0.9,0.9c0.3,0,0.5-0.1,0.7-0.3c0.2,0.2,0.4,0.3,0.7,0.3c0.5,0,0.9-0.4,0.9-0.9v-2h1.1l-0.3-1.1h0.8v2.8
	c0,0.7,0.5,1.2,1.2,1.2c0.4,0,0.8-0.2,1-0.6c0.2,0.3,0.6,0.6,1,0.6c0.7,0,1.2-0.5,1.2-1.2v-2.8h0.6v2.8c0,0.7,0.5,1.2,1.2,1.2
	c0.4,0,0.8-0.2,1-0.6c0.2,0.3,0.6,0.6,1,0.6c0.7,0,1.2-0.5,1.2-1.2V9.6l1.1,2c0.2,0.4,0.8,0.8,1.5,0.5C19.8,11.8,20,11.1,19.8,10.6
	L19.8,10.6z M12.6,3.6c0-1,0.8-1.8,1.8-1.8s1.8,0.8,1.8,1.8s-0.8,1.8-1.8,1.8S12.6,4.6,12.6,3.6z M7.6,3.6c0-1,0.8-1.8,1.8-1.8
	s1.8,0.8,1.8,1.8s-0.8,1.8-1.8,1.8S7.6,4.6,7.6,3.6z M2.7,7.6c0-0.7,0.6-1.3,1.3-1.3s1.3,0.6,1.3,1.3S4.7,8.9,4,8.9S2.7,8.4,2.7,7.6
	z M5.3,15.4v2.3c0,0.3-0.3,0.6-0.6,0.6S4.1,18,4.1,17.7v-2.3H3.9v2.3c0,0.3-0.3,0.6-0.6,0.6S2.7,18,2.7,17.7v-2.3H1.8l0.9-4.5
	l-1.2,2.3c-0.1,0.1-0.3,0.4-0.7,0.3c-0.3-0.1-0.4-0.4-0.3-0.7L1.4,11c0.5-1,0.8-1.7,1.7-1.7h1.7c1,0,1.3,0.7,1.7,1.7l0.9,1.8
	c0.1,0.3,0,0.6-0.3,0.7c-0.4,0.2-0.6-0.1-0.7-0.3l-1.2-2.3l1,4.5L5.3,15.4L5.3,15.4z M19.1,11.8c-0.5,0.2-0.9-0.1-1-0.4l-1.7-3.4
	v9.4c0,0.5-0.4,0.8-0.8,0.8c-0.5,0-0.8-0.4-0.8-0.8v-4.8h-0.4v4.8c0,0.5-0.4,0.8-0.8,0.8c-0.5,0-0.8-0.4-0.8-0.8V8.1l-1,1.9l0.9,4.3
	h-1.3v3.1c0,0.5-0.4,0.8-0.8,0.8s-0.8-0.4-0.8-0.8v-3.1H9.3v3.2c0,0.5-0.4,0.8-0.8,0.8c-0.5,0-0.8-0.4-0.8-0.8v-3.2H6.4l0.1-0.5
	c0.1,0,0.4,0.3,0.9,0.1c0.3-0.1,0.7-0.5,0.4-1.2L7,11.1l0.6-3l-1.1,2C6.3,9.5,6,9.1,5.4,9l0.4-0.9c0.7-1.4,1.1-2.4,2.5-2.4h2.4
	c0.4,0,0.9,0.1,1,0.3C11.3,6.4,11,7,11,7l0.1,0.4c0.5-1,1.1-1.7,2.1-1.7h2.4c1.3,0,1.8,1,2.4,2.4l1.3,2.6
	C19.6,11.1,19.5,11.6,19.1,11.8L19.1,11.8z M12.3,9.6v1.7L12.1,10L12.3,9.6L12.3,9.6z"/>
<path class="st1" d="M11.8,5.6c0,0-1.4,2.3,0.2,5c0,0-1.4-2.3-4.3-2.2C7.6,8.4,10.3,8.3,11.8,5.6z"/>
<path class="st1" d="M16.3,8c0,0-1.4,2.3,0.2,5c0,0-1.4-2.3-4.3-2.2C12.2,10.7,14.8,10.6,16.3,8z"/>
<path class="st1" d="M5.3,9.1c0,0-0.8,1.8,0.6,3.6c0,0-1.3-1.5-3.4-1.2C2.5,11.6,4.5,11.2,5.3,9.1z"/>
</svg>
