<?xml version="1.0" encoding="utf-8"?>
<!-- Generator: Adobe Illustrator 26.4.1, SVG Export Plug-In . SVG Version: 6.00 Build 0)  -->
<svg version="1.1" id="Livello_1" xmlns="http://www.w3.org/2000/svg" xmlns:xlink="http://www.w3.org/1999/xlink" x="0px" y="0px"
	 viewBox="0 0 20 20" style="enable-background:new 0 0 20 20;" xml:space="preserve">
<style type="text/css">
	.st0{fill:#D57A3C;stroke:#D57A3C;stroke-width:0.1341;stroke-miterlimit:10;}
	.st1{fill:#D57A3C;stroke:#D57A3C;stroke-width:0.3779;stroke-miterlimit:10;}
</style>
<g>
	<path class="st0" d="M8,8.3C8.2,8.6,8.5,8.9,8.9,9C9,9,9.3,9,9.6,9c0.6,0,1.4-0.1,1.6-0.9c0.1-0.3,0.3-0.7,0.4-0.7
		c0.1,0,0.2-0.1,0.2-0.2c0-0.1-0.1-0.2-0.2-0.2c-0.4,0-0.6,0.6-0.8,1C10.7,8.9,9,8.6,9,8.6C8.7,8.5,8.5,8.4,8.4,8.2
		C8.2,7.7,8.5,7,8.5,7c0.2-0.4,0.2-0.7,0-1C8.3,5.5,7.7,5.4,7.7,5.4c0,0,0,0,0,0C7.4,5.4,7.1,5.5,7,5.7C6.7,6.1,6.8,6.5,6.8,6.5
		c0,0.1,0.1,0.2,0.2,0.1c0.1,0,0.2-0.1,0.1-0.2c0,0,0-0.3,0.1-0.5c0.1-0.1,0.2-0.2,0.4-0.2c0.1,0,0.4,0.1,0.6,0.4
		c0.1,0.2,0.1,0.4,0,0.7C8.2,6.8,7.8,7.7,8,8.3L8,8.3z"/>
	<path class="st0" d="M7.6,7.4C7.9,7,7.8,6.5,7.8,6.5c0-0.1-0.1-0.2-0.2-0.1c-0.1,0-0.2,0.1-0.1,0.2c0,0,0.1,0.4-0.1,0.6
		C7.2,7.2,7.1,7.3,7,7.3c0,0-0.2,0-0.3-0.1C6.5,7.1,6.4,6.9,6.4,6.5c0-0.1-0.1-0.2-0.2-0.2S6,6.4,6,6.5c0,0.5,0.1,0.9,0.4,1
		c0.2,0.1,0.3,0.1,0.4,0.1c0,0.2,0,0.5-0.1,0.6C6.6,8.4,6.4,8.3,6,8.1c-0.1-0.1-0.2,0-0.3,0c-0.1,0.1,0,0.2,0,0.3
		c0.3,0.2,0.5,0.3,0.7,0.3c0.1,0,0.2,0,0.3-0.1c0.3-0.2,0.3-0.7,0.3-1C7.4,7.6,7.5,7.5,7.6,7.4L7.6,7.4z"/>
	<path class="st0" d="M9,8c0.1,0.2,0.4,0.3,0.7,0.3c0,0,0.1,0,0.2,0c0,0,0.4-0.1,0.6-0.3c0.1-0.1,0.1-0.3,0-0.5c0,0,0,0,0,0
		c-0.1-0.2-0.5-0.9-0.3-1.4c0-0.2,0.1-0.3,0.3-0.4c0.1,0,0.1-0.2,0.1-0.2c0-0.1-0.2-0.1-0.2-0.1C10,5.5,9.8,5.7,9.7,6
		C9.5,6.6,10,7.5,10.1,7.6c0,0.1,0,0.2,0,0.2C10,7.9,9.9,8,9.8,8c-0.3,0-0.5,0-0.6-0.1c-0.2-0.2,0-0.7,0-0.9c0-0.1,0-0.2-0.1-0.2
		S9,6.7,9,6.8C8.9,6.9,8.6,7.6,9,8L9,8z"/>
	<path class="st0" d="M10.4,6.7c0.1,0,0.2,0,0.2-0.1c0.1-0.1,0.3-0.4,0.4-0.4l0,0c0.1,0,0.2,0.1,0.4,0.4c0,0.1,0.1,0.1,0.2,0.1
		c0,0,0,0,0.1,0c0.1,0,0.1-0.2,0.1-0.2c-0.2-0.4-0.4-0.6-0.7-0.6c-0.4,0-0.7,0.5-0.8,0.6C10.3,6.5,10.3,6.6,10.4,6.7L10.4,6.7z"/>
	<path class="st0" d="M6.2,5.8c0,0,0.1,0,0.1,0.2c0,0.1,0.1,0.2,0.2,0.2l0,0c0.1,0,0.2-0.1,0.2-0.2c0-0.3-0.1-0.4-0.2-0.5
		C6.2,5.3,5.8,5.4,5.7,5.4c-0.1,0-0.2,0.1-0.1,0.2c0,0.1,0.1,0.2,0.2,0.1C5.9,5.7,6.1,5.7,6.2,5.8L6.2,5.8z"/>
	<path class="st0" d="M9.7,5.6c0.1,0,0.2-0.1,0.2-0.2c0-0.1-0.1-0.2-0.2-0.2C9.3,5.2,9.1,5.3,9,5.5C8.9,5.7,9,6,9,6
		c0,0.1,0.1,0.1,0.2,0.1c0,0,0,0,0.1,0c0.1,0,0.1-0.1,0.1-0.2c0,0,0-0.1,0-0.2S9.5,5.6,9.7,5.6L9.7,5.6z"/>
	<path class="st0" d="M7.4,9C7.4,9,7.4,9,7.4,9c0.4-0.1,0.4-0.6,0.4-0.7c0-0.1-0.1-0.2-0.2-0.2S7.4,8.2,7.4,8.3c0,0.1,0,0.3,0,0.3
		c-0.1,0-0.2,0.1-0.1,0.2C7.3,9,7.3,9,7.4,9L7.4,9z"/>
	<path class="st0" d="M15.5,9.1c0.9,0,1.5-0.7,1.5-1.5S16.4,6,15.5,6C14.7,6,14,6.7,14,7.5S14.7,9.1,15.5,9.1z M15.5,6.3
		c0.7,0,1.2,0.5,1.2,1.2s-0.5,1.2-1.2,1.2c-0.6,0-1.2-0.5-1.2-1.2S14.9,6.3,15.5,6.3z"/>
	<path class="st0" d="M3.7,15c0-0.9-0.7-1.5-1.5-1.5S0.6,14.1,0.6,15s0.7,1.5,1.5,1.5S3.7,15.8,3.7,15z M1,15c0-0.7,0.5-1.2,1.2-1.2
		s1.2,0.5,1.2,1.2s-0.5,1.2-1.2,1.2S1,15.6,1,15z"/>
	<path class="st0" d="M4.1,18c0.1,0,0.2-0.1,0.2-0.2c0-0.8-0.7-1-1.1-1H1.2c-0.4,0-1.1,0.2-1.1,1c0,0.1,0.1,0.2,0.2,0.2
		s0.2-0.1,0.2-0.2c0-0.7,0.7-0.7,0.8-0.7h1.9c0,0,0.8,0,0.8,0.7C3.9,17.9,4,18,4.1,18z"/>
	<path class="st0" d="M17.8,14.1c-0.9,0-1.5,0.7-1.5,1.5s0.7,1.5,1.5,1.5s1.5-0.7,1.5-1.5S18.7,14.1,17.8,14.1z M17.8,16.8
		c-0.7,0-1.2-0.5-1.2-1.2s0.5-1.2,1.2-1.2c0.6,0,1.2,0.5,1.2,1.2S18.5,16.8,17.8,16.8z"/>
	<path class="st0" d="M18.8,17.4h-1.9c-0.4,0-1.1,0.2-1.1,1c0,0.1,0.1,0.2,0.2,0.2c0.1,0,0.2-0.1,0.2-0.2c0-0.7,0.7-0.7,0.8-0.7h1.9
		c0,0,0.8,0,0.8,0.7c0,0.1,0.1,0.2,0.2,0.2c0.1,0,0.2-0.1,0.2-0.2C19.9,17.6,19.2,17.4,18.8,17.4z"/>
	<path class="st0" d="M4.3,16c0,0.9,0.7,1.5,1.5,1.5s1.5-0.7,1.5-1.5c0-0.9-0.7-1.5-1.5-1.5S4.3,15.1,4.3,16z M5.9,14.8
		C6.5,14.8,7,15.3,7,16c0,0.6-0.5,1.2-1.2,1.2S4.7,16.6,4.7,16C4.7,15.3,5.2,14.8,5.9,14.8z"/>
	<path class="st0" d="M6.8,17.7H4.9c-0.4,0-1.1,0.2-1.1,1C3.8,18.9,3.9,19,4,19c0.1,0,0.2-0.1,0.2-0.2c0-0.7,0.7-0.7,0.8-0.7h1.9
		c0,0,0.8,0,0.8,0.7c0,0.1,0.1,0.2,0.2,0.2s0.2-0.1,0.2-0.2C7.9,18,7.2,17.7,6.8,17.7z"/>
	<path class="st0" d="M8.7,15.6c0,0.9,0.7,1.5,1.5,1.5c0.9,0,1.5-0.7,1.5-1.5c0-0.9-0.7-1.5-1.5-1.5C9.4,14.1,8.7,14.8,8.7,15.6z
		 M11.5,15.6c0,0.7-0.5,1.2-1.2,1.2c-0.6,0-1.2-0.5-1.2-1.2c0-0.6,0.5-1.2,1.2-1.2S11.5,15,11.5,15.6z"/>
	<path class="st0" d="M11.2,17.4H9.4c-0.4,0-1.1,0.2-1.1,1c0,0.1,0.1,0.2,0.2,0.2s0.2-0.1,0.2-0.2c0-0.7,0.7-0.7,0.8-0.7h1.9
		c0.1,0,0.2-0.1,0.2-0.2C11.4,17.5,11.3,17.4,11.2,17.4z"/>
	<path class="st0" d="M13.7,14.4c-0.9,0-1.5,0.7-1.5,1.5c0,0.9,0.7,1.5,1.5,1.5s1.5-0.7,1.5-1.5C15.2,15.1,14.5,14.4,13.7,14.4z
		 M13.7,17.1c-0.7,0-1.2-0.5-1.2-1.2s0.5-1.2,1.2-1.2s1.2,0.5,1.2,1.2S14.3,17.1,13.7,17.1z"/>
	<path class="st0" d="M14.6,17.7h-1.9c-0.4,0-1.1,0.2-1.1,1c0,0.1,0.1,0.2,0.2,0.2s0.2-0.1,0.2-0.2c0-0.7,0.7-0.7,0.8-0.7h1.9
		c0,0,0.8,0,0.8,0.7c0,0.1,0.1,0.2,0.2,0.2s0.2-0.1,0.2-0.2C15.7,18,15,17.7,14.6,17.7z"/>
	<path class="st0" d="M5.3,13.4c-0.1,0-0.2,0.1-0.2,0.2v0.7c0,0.1,0.1,0.2,0.2,0.2s0.2-0.1,0.2-0.2v-0.5h6.9V14
		c0,0.1,0.1,0.2,0.2,0.2s0.2-0.1,0.2-0.2v-0.4c0-0.1-0.1-0.2-0.2-0.2H11L11,12.9c0.1-0.2,0.4-0.6,0.7-1.6l1.7,1c0.1,0,0.1,0,0.2,0
		l0.6-0.5l0.2,1.7V14c0,0.1,0.1,0.2,0.2,0.2s0.2-0.1,0.2-0.2v-0.4l-0.2-2c0-0.1,0-0.1-0.1-0.1c-0.1,0-0.1,0-0.2,0L13.6,12l-2.5-1.5
		c0,0,0,0,0,0c0,0,0,0,0,0l-1-0.3C10,10.1,10,9.9,10,9.8l0.6,0.2c0.1,0,0.1,0,0.2-0.1c0,0,0-0.1,0-0.1l0.2,0.4c0,0,0,0.1,0.1,0.1
		l2.2,1c0,0,0,0,0.1,0c0.1,0,0.1,0,0.1-0.1l0.7-1c0,0,0,0,0,0c0.1-0.3,0.8-0.3,1.3-0.3h1.1c0,0,0.6,0,0.7,0.8h-0.9
		c0,0-0.1,0-0.1,0.1c0,0,0,0.1,0,0.1l0.3,2c0,0,0,0,0,0v0c0,0,0,0,0,0c0,0,0,0,0,0c0,0,0,0,0,0c0,0,0,0,0,0c0,0,0,0,0.1,0l0,0l0,0
		H17l0,0.5c0,0.1,0.1,0.2,0.2,0.2c0,0,0,0,0,0c0.1,0,0.2-0.1,0.2-0.2l0.1-0.5h1c0.1,0,0.2-0.1,0.2-0.2v-0.1c0.3-0.1,0.4-0.4,0.4-0.6
		c0-0.3,0-0.5-0.1-0.6c0,0-0.1-0.1-0.1-0.1l0.1-0.6c0,0,0-0.1,0-0.1c0,0-0.1-0.1-0.1-0.1h-0.8c0-0.9-0.7-1.2-1-1.2h-1.1
		c-0.2,0-1.4-0.1-1.7,0.5l-0.6,0.9l-2-0.9L11,9.3c0-0.1-0.1-0.1-0.2-0.1c0,0-0.2,0.1-0.3,0.3L10,9.3c-0.1,0-0.2,0-0.2,0.1
		c0,0-0.3,0.5,0,1c0,0,0.1,0.1,0.1,0.1l1,0.3l0.5,0.3c-0.4,1.2-0.7,1.6-0.7,1.6c0,0-0.1,0.1,0,0.1l0.1,0.5H6.9l0-0.4h2
		C9,13,9.1,13,9.1,12.9c0-0.1-0.1-0.2-0.2-0.2H6.8c-0.2-0.3-1.3-2-1.4-6.7c0-0.1,0-1.7,1.3-1.9c0,0,0,0,0,0C7,4,7.4,3.7,7.3,3.1v0
		L7.2,2.9h2.6c0.1,0,0.2-0.1,0.2-0.2c0-0.1-0.1-0.2-0.2-0.2H7.2C7.3,2.3,7.6,2,8.3,2c0.1,0,0.1,0,0.1-0.1c0,0,0-0.1,0-0.2
		c0,0,0-0.2,0-0.2c0-0.1,0.1-0.1,0.2-0.1c0,0,0,0,0,0c0,0,0,0,0,0c0.1,0,0.2,0,0.2,0.1c0,0.1,0,0.2,0,0.2c0,0,0,0.1,0,0.2
		C9.1,2,9.1,2,9.2,2c1,0.1,1.2,0.5,1.2,0.7l-0.2,0.4v0c-0.1,0.6,0.3,0.9,0.5,1c0,0,0,0,0,0c0.7,0.1,1.1,0.7,1.2,1.2
		c-0.2,0-0.4,0-0.5,0c-0.1,0-0.2,0.1-0.1,0.2c0,0.1,0.1,0.2,0.2,0.1c0,0,0.4-0.1,0.5,0.1C12,5.9,12,6,12,6c0,1-0.1,1.9-0.2,2.7
		c0,0,0,0,0,0h-0.4c-0.1,0-0.2,0.1-0.2,0.2s0.1,0.2,0.2,0.2h0.4c0,0.1,0,0.2,0,0.3c0,0.1,0,0.2,0.2,0.2h0c0.1,0,0.2-0.1,0.2-0.2
		c0.2-1,0.2-2.1,0.3-3.4c0-0.7-0.3-2-1.6-2.3c-0.1,0-0.3-0.2-0.3-0.5l0.2-0.4c0,0,0-0.1,0-0.1c0,0-0.1-0.9-1.4-1
		c0-0.1,0-0.2-0.1-0.3C9.2,1.2,9,1.1,8.7,1.1c0,0,0,0,0,0c0,0,0,0,0,0c-0.3,0-0.4,0.1-0.5,0.2C8.1,1.4,8.1,1.5,8.1,1.6
		c-1.3,0.2-1.4,1-1.4,1c0,0,0,0,0,0l0,0l0,0c0,0,0,0,0,0.1l0,0l0,0l0.2,0.4C7,3.5,6.7,3.7,6.6,3.7C5.4,3.9,5,5.3,5,6
		c0.1,4.9,1.2,6.6,1.5,6.9l0,0.5L5.3,13.4L5.3,13.4z M18.6,12.1c0,0,0,0.3-0.2,0.3v0.1l0,0v-0.1c-0.2,0-0.4-0.2-0.4-0.3
		s0.2-0.3,0.4-0.3c0,0,0,0,0.1,0h0c0,0,0,0,0.1,0C18.6,11.8,18.6,11.9,18.6,12.1L18.6,12.1z M18.3,11.4c-0.4,0-0.6,0.3-0.6,0.7
		c0,0.2,0.1,0.5,0.3,0.6h-1.1L16.7,11h1.7L18.3,11.4L18.3,11.4z"/>
</g>
<path class="st1" d="M16.7,9.8c0,0-0.7,1.6,0.6,3.1c0,0-1.1-1.3-3-1C14.3,11.9,16,11.6,16.7,9.8z"/>
</svg>
