<?xml version="1.0" encoding="utf-8"?>
<!-- Generator: Adobe Illustrator 26.4.1, SVG Export Plug-In . SVG Version: 6.00 Build 0)  -->
<svg version="1.1" id="Livello_1" xmlns="http://www.w3.org/2000/svg" xmlns:xlink="http://www.w3.org/1999/xlink" x="0px" y="0px"
	 viewBox="0 0 20 20" style="enable-background:new 0 0 20 20;" xml:space="preserve">
<style type="text/css">
	.st0{fill:#fff;stroke:#fff;stroke-width:0.2779;stroke-miterlimit:10;}
	.st1{fill:#fff;stroke:#fff;stroke-width:0.4168;stroke-linecap:round;stroke-linejoin:round;}
	.st2{fill:#fff;stroke:#fff;stroke-width:0.4052;stroke-miterlimit:10;}
</style>
<g>
	<path class="st0" d="M16,4.3c1.1,0,2-0.9,2-2c0-1.1-0.9-2-2-2s-2,0.9-2,2S14.8,4.3,16,4.3z M16,0.6c0.9,0,1.7,0.8,1.7,1.7
		S16.9,4,16,4s-1.7-0.8-1.7-1.7S15,0.6,16,0.6z"/>
	<path class="st0" d="M17.5,4.8h-3c-1.3,0-2.3,1-2.3,2.3v4c0,0.5,0.4,1,0.9,1.1c0.3,0.1,0.6,0,0.9-0.2c0,0,0,0,0,0v6.8
		c0,0.6,0.5,1.1,1.1,1.1c0.4,0,0.7-0.2,0.9-0.5c0.2,0.3,0.5,0.5,0.9,0.5c0.6,0,1.1-0.5,1.1-1.1v-6.8c0,0,0,0,0,0
		c0.2,0.2,0.5,0.3,0.9,0.2c0.5-0.1,0.9-0.5,0.9-1.1V7.4C19.7,5.9,18.8,4.8,17.5,4.8L17.5,4.8z M19.4,11.1c0,0.4-0.3,0.7-0.6,0.7
		c-0.2,0-0.4,0-0.6-0.2c-0.2-0.1-0.2-0.3-0.2-0.5l0,0V7.4c0-0.1-0.1-0.2-0.2-0.2c-0.1,0-0.2,0.1-0.2,0.2v3.8l0,0l0,0v7.5
		c0,0.4-0.3,0.8-0.8,0.8s-0.8-0.3-0.8-0.8v-7.4c0-0.1-0.1-0.2-0.2-0.2s-0.2,0.1-0.2,0.2v7.4c0,0.4-0.3,0.8-0.8,0.8s-0.8-0.3-0.8-0.8
		V7.4c0-0.1-0.1-0.2-0.2-0.2c-0.1,0-0.2,0.1-0.2,0.2v3.8c0,0.2-0.1,0.4-0.2,0.5c-0.2,0.1-0.4,0.2-0.6,0.2c-0.3-0.1-0.6-0.4-0.6-0.7
		v-4c0-1.1,0.9-2,2-2h3c1.2,0,2,0.9,2,2.3L19.4,11.1L19.4,11.1L19.4,11.1z"/>
	<path class="st0" d="M4.4,4.3c1.1,0,2-0.9,2-2s-0.9-2-2-2s-2,0.9-2,2S3.3,4.3,4.4,4.3L4.4,4.3z M4.4,0.6c0.9,0,1.7,0.8,1.7,1.7
		S5.4,4,4.4,4S2.7,3.2,2.7,2.3S3.5,0.6,4.4,0.6z"/>
	<path class="st0" d="M7.3,6.4c-0.4-1-1.1-1.6-1.9-1.6h-2c-0.8,0-1.5,0.6-1.9,1.6c-0.3,0.9-1.2,3.5-1.3,4c-0.1,0.3,0,0.5,0.1,0.8
		c0.2,0.2,0.4,0.4,0.7,0.5c0.2,0,0.5,0,0.7-0.1l-0.4,1.9c0,0,0,0.1,0,0.2c0,0,0.1,0.1,0.1,0.1h0.8v5.1c0,0.6,0.5,1.1,1.1,1.1
		c0.4,0,0.7-0.2,0.9-0.5c0.2,0.3,0.5,0.5,0.9,0.5c0.6,0,1.1-0.5,1.1-1.1v-5.1h0.8c0,0,0.1,0,0.1-0.1c0,0,0-0.1,0-0.2L7,11.5
		c0.2,0.1,0.3,0.2,0.5,0.2c0.1,0,0.1,0,0.2,0c0.3,0,0.6-0.2,0.7-0.5c0.2-0.2,0.2-0.5,0.1-0.8C8.4,9.8,7.6,7.3,7.3,6.4L7.3,6.4z
		 M4.2,18.7c0,0.4-0.3,0.8-0.8,0.8s-0.8-0.3-0.8-0.8v-5.1h1.5C4.2,13.6,4.2,18.7,4.2,18.7z M6.1,18.7c0,0.4-0.3,0.8-0.8,0.8
		c-0.4,0-0.8-0.3-0.8-0.8v-5.1h1.5L6.1,18.7L6.1,18.7z M8.1,10.9c-0.1,0.2-0.3,0.3-0.5,0.3c-0.2,0-0.4,0-0.5-0.1
		C7,11,6.9,10.9,6.8,10.7L6.1,7.4c0-0.1-0.1-0.2-0.2-0.1S5.7,7.4,5.8,7.5l0.7,3.2l0,0c0,0,0,0.1,0,0.1L7,13.2H1.8l0.5-2.4
		c0,0,0-0.1,0-0.1l0,0L3,7.5c0-0.1-0.1-0.2-0.2-0.2c-0.2,0-0.2,0-0.2,0.1L2,10.7c0,0.2-0.1,0.3-0.3,0.4c-0.2,0.1-0.3,0.2-0.5,0.1
		c-0.2,0-0.4-0.2-0.5-0.3c-0.1-0.1-0.1-0.3-0.1-0.5c0.1-0.5,0.9-3,1.3-3.9c0.3-0.9,0.9-1.4,1.6-1.4h2c0.7,0,1.3,0.5,1.6,1.4
		c0.3,1,1.2,3.5,1.3,3.9C8.3,10.6,8.2,10.8,8.1,10.9L8.1,10.9z"/>
	<path class="st0" d="M10,0.2c-0.1,0-0.2,0.1-0.2,0.2v19.2c0,0.1,0.1,0.2,0.2,0.2c0.1,0,0.2-0.1,0.2-0.2V0.4
		C10.2,0.3,10.1,0.2,10,0.2z"/>
	<path class="st1" d="M6.1,5.1c0,0-1.1,1.9,0.2,4.2c0,0-1.1-2.1-3.6-2C2.8,7.3,4.7,7.3,6.1,5.1L6.1,5.1z"/>
	<path class="st2" d="M17.7,7.7c0,0-1.3,2,0.2,4.4c0,0-1.3-2-3.9-2C14,10.1,16.3,10,17.7,7.7L17.7,7.7z"/>
</g>
</svg>
