<?xml version="1.0" encoding="utf-8"?>
<!-- Generator: Adobe Illustrator 26.4.1, SVG Export Plug-In . SVG Version: 6.00 Build 0)  -->
<svg version="1.1" id="Livello_1" xmlns="http://www.w3.org/2000/svg" xmlns:xlink="http://www.w3.org/1999/xlink" x="0px" y="0px"
	 viewBox="0 0 20 20" style="enable-background:new 0 0 20 20;" xml:space="preserve">
<style type="text/css">
	.st0{fill:none;stroke:#FFFFFF;stroke-width:0.2442;stroke-linecap:round;stroke-linejoin:round;stroke-miterlimit:10;}
	.st1{fill:none;stroke:#FFFFFF;stroke-width:0.1953;stroke-linecap:round;stroke-linejoin:round;stroke-miterlimit:10;}
	.st2{fill:none;stroke:#FFFFFF;stroke-width:0.1838;stroke-linecap:round;stroke-linejoin:round;stroke-miterlimit:10;}
	.st3{fill:#FFFFFF;}
</style>
<g>
	<path class="st0" d="M17.8,4.2c0,0-1.1,0.7-1,2.1c0,0-0.1-1.3-1.4-1.9C15.5,4.5,16.6,5,17.8,4.2z"/>
	<path class="st1" d="M14.3,1.7c0,0-0.6,0.7-0.2,1.6c0,0-0.3-0.8-1.3-0.9C12.8,2.4,13.7,2.5,14.3,1.7z"/>
	<path class="st0" d="M3.2,13.1c0,0-0.6,1.1,0.3,2.3c0,0-0.7-1-2.1-0.9C1.3,14.5,2.6,14.4,3.2,13.1z"/>
	<path class="st2" d="M16.8,16.9c0,0-0.5,0.6-0.2,1.5c0,0-0.3-0.8-1.2-0.9C15.5,17.5,16.3,17.6,16.8,16.9z"/>
	<g>
		<path class="st3" d="M8.9,15.6c-0.3-0.1-0.5-0.2-0.8-0.1L5.2,5.6C5.8,5.3,6.1,4.7,5.9,4C5.7,3.4,5,3,4.3,3.2
			C3.9,3.3,3.6,3.5,3.5,3.9C3.1,3.7,2.7,3.6,2.4,3.7C2,3.8,1.8,4,1.6,4.3C1.4,4.7,1.4,5,1.5,5.3C1.6,5.7,1.8,6,2.1,6.1
			c0.3,0.1,0.5,0.2,0.8,0.1l2.9,9.8c-0.3,0.1-0.5,0.3-0.6,0.6C5,17,5,17.3,5.1,17.6c0.2,0.6,0.7,0.9,1.3,0.9c0.1,0,0.2,0,0.4-0.1
			c0.4-0.1,0.7-0.4,0.8-0.7C7.9,18,8.3,18.1,8.6,18c0.3-0.1,0.6-0.3,0.8-0.6c0.2-0.3,0.2-0.7,0.1-1C9.4,16,9.2,15.7,8.9,15.6z
			 M9.1,17.2c-0.1,0.2-0.3,0.4-0.6,0.5c-0.3,0.1-0.7,0-1-0.3c0,0-0.1-0.1-0.2,0c-0.1,0-0.1,0.1-0.1,0.1c-0.1,0.4-0.3,0.6-0.7,0.7
			c-0.5,0.2-1.1-0.1-1.2-0.7c-0.1-0.2,0-0.5,0.1-0.7c0.1-0.2,0.3-0.4,0.6-0.5c0,0,0.1,0,0.1-0.1c0,0,0-0.1,0-0.1L3.2,6
			c0,0,0-0.1-0.1-0.1c0,0-0.1,0-0.1,0C2.8,6,2.5,6,2.3,5.8C2,5.7,1.9,5.5,1.8,5.2C1.7,5,1.8,4.7,1.9,4.5C2,4.3,2.2,4.1,2.5,4
			c0.3-0.1,0.7,0,1,0.3c0,0,0.1,0.1,0.2,0c0.1,0,0.1-0.1,0.1-0.1C3.8,3.9,4,3.6,4.4,3.5c0.5-0.1,1.1,0.1,1.2,0.7
			c0.2,0.5-0.1,1.1-0.7,1.2c0,0-0.1,0-0.1,0.1c0,0,0,0.1,0,0.1l3,10.1c0,0,0,0.1,0.1,0.1c0,0,0.1,0,0.1,0c0.2-0.1,0.5,0,0.7,0.1
			C9,16,9.1,16.2,9.2,16.4C9.3,16.7,9.2,16.9,9.1,17.2z"/>
		<path class="st3" d="M19.3,13.9c-0.5-1.2-1.1-2.6-0.8-4.2C19.4,6,19,3,17.6,1.5c-0.8-0.9-2-1.2-3.4-1c-0.9,0.2-1.5,0.4-2,0.6
			c-1,0.4-2,0.8-4.3,0.4C4.2,1,1.2,1.9,0.3,3.8c-0.7,1.6-0.2,3.1,0.4,4.6c0.5,1.4,1,2.7,0.2,3.9c-0.8,1.2-1.1,2.7-0.8,3.9
			c0.3,1.2,1,2.1,2.1,2.8c0.7,0.4,2,0.6,3.3,0.6c1.9,0,3.9-0.4,5.1-1.2c1.3-0.9,2.3-0.3,3.4,0.3c1.5,0.9,3.1,1.8,5.6-1.6
			C20.3,16.2,19.9,15.1,19.3,13.9z M19.4,16.9c-2.4,3.2-3.8,2.4-5.2,1.5c-1.1-0.6-2.2-1.3-3.7-0.3c-1.8,1.2-6.3,1.5-8,0.5
			c-1-0.6-1.7-1.5-2-2.6c-0.3-1.2,0-2.6,0.7-3.7c0.9-1.3,0.3-2.7-0.2-4.2C0.5,6.8,0,5.3,0.6,3.9c0.6-1.3,2.9-2.7,7.2-2
			c2.4,0.4,3.4,0,4.5-0.4c0.6-0.2,1.1-0.4,2-0.6c1.3-0.2,2.3,0.1,3.1,0.9c1.3,1.4,1.7,4.4,0.9,7.9c-0.4,1.7,0.2,3.1,0.8,4.4
			C19.6,15.2,20,16.1,19.4,16.9z"/>
		<path class="st3" d="M16.4,16.1c0.2-0.3,0.4-0.5,0.7-0.7c0.5-0.4,1-0.8,1-1.6c0-0.7-0.4-1.1-0.8-1.6c-0.3-0.4-0.7-0.8-1.1-1.4
			c-0.4-0.8-0.5-1.3-0.5-2c0-0.6-0.1-1.4-0.4-2.5c-0.8-2.7-2.6-3.1-4.4-3.2C10.1,3,9,2.9,7.9,4C6.3,5.4,5.9,6.9,6.7,8.3
			c0.5,0.9,1,1.3,1.7,1.7c0.5,0.3,1.1,0.8,1.9,1.5c1,1,1.2,1.7,1.5,2.5c0.2,0.7,0.4,1.3,1.2,2c0.6,0.6,1.3,0.9,2,0.9
			c0.1,0,0.2,0,0.3,0C15.7,16.8,16.2,16.5,16.4,16.1z M13.1,15.8c-0.7-0.6-0.9-1.2-1.1-1.9c-0.2-0.7-0.5-1.6-1.5-2.6
			C9.6,10.5,9,10.1,8.5,9.7C7.8,9.2,7.4,8.9,7,8.1c-0.9-1.6,0.1-3,1.1-3.9c0.8-0.7,1.8-0.9,2.8-0.8c1.7,0.1,3.4,0.5,4.1,3
			c0.3,1.1,0.4,1.8,0.4,2.4c0,0.7,0.1,1.3,0.5,2.2c0.4,0.7,0.8,1.1,1.1,1.5c0.4,0.5,0.7,0.8,0.7,1.4c0,0.6-0.4,0.9-0.9,1.3
			c-0.3,0.2-0.6,0.5-0.8,0.8c-0.1,0.2-0.2,0.3-0.4,0.4c-0.3-0.7-2.2-4.3-2.7-5c-0.2-0.2-0.5-0.4-0.8-0.6c-1-0.5-2.3-1.2-1.9-3.4
			c0-0.1,0-0.2-0.1-0.2c-0.1,0-0.2,0-0.2,0.1c-0.5,2.5,1,3.3,2.1,3.8c0.3,0.2,0.6,0.3,0.7,0.5c0.5,0.6,2.3,4.3,2.7,4.9
			c-0.1,0-0.2,0.1-0.3,0.1C14.5,16.7,13.7,16.4,13.1,15.8z"/>
		<path class="st3" d="M16.2,14.2C16.2,14.2,16.3,14.2,16.2,14.2c0.1,0,0.2-0.1,0.2-0.2l0.1-1.3c0-0.1-0.1-0.2-0.2-0.2
			c-0.1,0-0.2,0.1-0.2,0.2l-0.1,1.3C16.1,14.2,16.2,14.2,16.2,14.2z"/>
		<path class="st3" d="M13.5,9.1C13.5,9.1,13.5,9.1,13.5,9.1c0.1,0,0.2,0,0.2-0.1c0.4-0.9,0.5-1.7,0.2-2.3c-0.5-1.1-1.8-1.5-1.9-1.5
			c-0.1,0-0.2,0-0.2,0.1c-0.4,1-0.4,1.8-0.1,2.5C12.3,8.8,13.4,9.1,13.5,9.1z M12.1,5.5c0.3,0.1,1.2,0.5,1.5,1.3
			c0.2,0.5,0.2,1.2-0.2,1.9c-0.3-0.1-1-0.4-1.4-1.1C11.7,7.1,11.8,6.4,12.1,5.5z"/>
		<path class="st3" d="M14.8,3.3L16,3.8c0,0,0.1,0,0.1,0c0,0,0.1,0,0.1-0.1L16.8,3C17,2.8,17,2.4,16.9,2.1l-0.1-0.3
			c-0.1-0.2-0.3-0.3-0.5-0.3l-0.5,0c-0.4,0-0.8,0.3-0.8,0.7l-0.2,0.9C14.7,3.1,14.8,3.2,14.8,3.3z M15.2,2.2c0-0.2,0.2-0.4,0.5-0.4
			l0.5,0c0.1,0,0.2,0.1,0.2,0.1l0.1,0.3c0.1,0.2,0.1,0.4-0.1,0.5L16,3.5L15.1,3L15.2,2.2z"/>
		<path class="st3" d="M2.3,15.8c0,0-0.1,0-0.1,0c0,0-0.1,0-0.1,0.1l-0.5,0.8c0,0.1,0,0.1,0,0.2l0.9,1.1C2.5,18,2.6,18,2.7,18
			c0,0,0.1,0,0.1,0c0.1,0,0.3-0.2,0.3-0.3l0.2-0.9c0-0.1,0-0.1-0.1-0.2L2.3,15.8z M2.8,17.6C2.8,17.7,2.7,17.7,2.8,17.6
			C2.7,17.7,2.7,17.7,2.8,17.6l-0.9-1l0.3-0.5l0.7,0.6L2.8,17.6z"/>
		<path class="st3" d="M18.1,15.2c0,0-0.1-0.1-0.1-0.1c0,0-0.1,0-0.1,0.1l-0.5,0.7c0,0.1,0,0.1,0,0.2l0.5,0.9c0,0,0.1,0.1,0.1,0.1
			c0,0,0,0,0,0c0,0,0.1,0,0.1-0.1l0.7-0.8c0.1-0.1,0.1-0.2,0-0.2L18.1,15.2z M18,16.6L17.7,16l0.3-0.4l0.5,0.5L18,16.6z"/>
	</g>
</g>
</svg>
