<?xml version="1.0" encoding="UTF-8"?><svg id="Livello_1" xmlns="http://www.w3.org/2000/svg" viewBox="0 0 1440 158"><defs><style>.cls-1{stroke-width:.47px;}.cls-1,.cls-2,.cls-3,.cls-4,.cls-5,.cls-6,.cls-7,.cls-8,.cls-9,.cls-10{stroke:#fff;}.cls-1,.cls-2,.cls-3,.cls-4,.cls-6,.cls-7,.cls-8,.cls-9,.cls-10{stroke-miterlimit:10;}.cls-1,.cls-11,.cls-3,.cls-4,.cls-5,.cls-7,.cls-9,.cls-10{fill:#fff;}.cls-12{fill:#561a18;}.cls-2,.cls-6,.cls-8{fill:none;}.cls-2,.cls-7{stroke-width:.44px;}.cls-11{font-family:Lato-Bold, Lato;font-size:14.06px;}.cls-3,.cls-8{stroke-width:.88px;}.cls-4,.cls-5{stroke-width:1.32px;}.cls-5{stroke-linejoin:round;}.cls-5,.cls-6{stroke-linecap:round;}.cls-6{stroke-width:2.38px;}.cls-9{stroke-width:.7px;}.cls-10{stroke-width:1.29px;}</style></defs><g id="Rettangolo_27"><rect class="cls-12" x="-11.66" y="-9.04" width="1470.61" height="176.08"/><rect class="cls-12" x="-11.28" y="-8.77" width="1469.84" height="175.54"/></g><g><text class="cls-11" transform="translate(220.1 122.46)"><tspan x="0" y="0">Accessibilità</tspan></text><path class="cls-6" d="M248.55,59.89c.45-.12,.91-.21,1.38-.29m-4.52,1.48c-5.12,2.6-8.63,7.91-8.63,14.05,0,8.69,7.05,15.74,15.74,15.74,6.18,0,11.53-3.56,14.1-8.74m-7.49-46.59c-3.53,0-6.39,2.86-6.39,6.38s2.86,6.39,6.39,6.39,6.38-2.86,6.38-6.39-2.86-6.38-6.38-6.38Zm22.88,45.77l.84,1.92m-2.01-4.58l-1.64-3.74c-1.3-2.97-4.04-2.95-4.04-2.95h-10.91v-14.91c0-2.89-2.34-5.23-5.23-5.23s-5.23,2.34-5.23,5.23v18.38c0,1.92,1.55,3.47,3.47,3.47h15.38l6.86,15.67c.84,1.93,3.09,2.8,5.01,1.96,1.93-.84,2.8-3.09,1.96-5.01l-2.4-5.48"/><path class="cls-3" d="M253.53,69.44c-.25-.58-.27-1.26-.04-1.85-.27-.54-.33-1.19-.16-1.77-.41-.44-.61-1.06-.58-1.67-4.4-.09-7.35-2.14-7.35-2.14,7.2,5.39,7.61,13.25,7.61,13.25,.04-1.27,.22-2.43,.5-3.51-.37-.71-.37-1.62,.03-2.32Z"/><path class="cls-3" d="M237.75,75.28s7.28-3.86,7.55-13.18c0,0,.17,8.63,7.7,13.17,0,0-7.03-3.63-15.25,.01Z"/><path class="cls-3" d="M237.73,75.39s7.07,4.23,15.18-.37c0,0-7.29,4.61-7.27,13.41,0,0-.25-8.15-7.91-13.04Z"/><path class="cls-3" d="M260.45,87.78s-6.71-4.11-14.81,.51c0,0,7.41-4.24,7.36-13.03,0,0-.27,7.78,7.45,12.52Z"/><path class="cls-8" d="M254.39,75.97c-.87-.38-1.41-.73-1.54-.82,.62,.4,1.18,.81,1.7,1.24-.07-.14-.12-.28-.16-.42Z"/><path class="cls-3" d="M263.31,78.3c-.33,.25-.76,.41-1.29,.41-.67,0-1.17-.24-1.53-.62-.35,.31-.81,.52-1.42,.52-.3,0-.57-.05-.8-.14-.15,.03-.3,.05-.47,.05-.28,0-.53-.04-.75-.12-.1,.01-.21,.02-.33,.02-.04,0-.07,0-.11,0,3.85,4.47,3.84,9.38,3.84,9.38,0-4.2,1.61-7.27,3.31-9.33-.17-.04-.32-.09-.46-.16Z"/></g><g><text class="cls-11" transform="translate(467.35 121.84)"><tspan x="0" y="0">Scuole</tspan></text><g><path class="cls-7" d="M458.39,95.27h59.9c.42,0,.77-.34,.77-.77v-16.99c0-.42-.34-.77-.77-.77h-3.46v-12.24c0-.42-.34-.77-.77-.77h-17.81c3.1-1.91,5.81-5.5,7.18-10.05,1.24-4.1,1.05-7.96-.53-10.87-1.2-2.21-3.11-3.76-5.52-4.46-2.84-.83-5.76-.27-8.22,1.51,.16-1.61,.73-3.92,2.72-4.53,.41-.12,.63-.55,.51-.96-.13-.4-.55-.63-.96-.51-2.93,.9-3.66,4.05-3.82,6.05-2.48-1.82-5.42-2.4-8.29-1.56-2.41,.7-4.32,2.25-5.52,4.46-1.57,2.91-1.76,6.77-.53,10.87,1.37,4.54,4.08,8.14,7.17,10.05h-17.84c-.42,0-.77,.34-.77,.77v12.24h-3.46c-.42,0-.77,.34-.77,.77v16.99c0,.42,.34,.77,.77,.77Zm16.36-42.03c-1.12-3.71-.97-7.15,.41-9.69,1-1.85,2.59-3.13,4.6-3.72,.72-.21,1.45-.31,2.17-.31,2.11,0,4.18,.89,5.89,2.57,0,0,0,0,.01,0,.06,.06,.13,.1,.21,.14,.01,0,.02,.02,.04,.02,.08,.03,.17,.05,.26,.05,0,0,.02,0,.03,0,.02,0,.04,0,.06,0,.04,0,.06-.02,.1-.03,.06-.01,.11-.02,.16-.05,.05-.02,.09-.05,.13-.08,.03-.02,.07-.03,.09-.06,2.29-2.26,5.23-3.09,8.06-2.26,2.01,.59,3.6,1.87,4.6,3.72,1.38,2.54,1.52,5.98,.41,9.69-2.1,6.98-7.55,11.57-12.14,10.23-.37-.11-.74-.26-1.1-.46-.23-.12-.5-.12-.73,0-.36,.19-.73,.35-1.1,.46-4.59,1.34-10.04-3.24-12.14-10.23Zm-11.37,12.03h49.91v11.47h-49.91v-11.47Zm-4.23,13.01h58.36v15.45h-58.36v-15.45Z"/><path class="cls-7" d="M491.01,80.61h-29.04c-.42,0-.77,.34-.77,.77v9.25c0,.42,.34,.77,.77,.77h29.04c.42,0,.77-.34,.77-.77v-9.25c0-.42-.34-.77-.77-.77Zm-28.27,1.54h7.48v7.71h-7.48v-7.71Zm27.5,7.71h-18.49v-7.71h18.49v7.71Z"/><path class="cls-7" d="M494.97,45.01c.86,.25,1.55,.8,1.97,1.58,.59,1.1,.65,2.59,.15,4.22-.12,.41,.1,.84,.51,.96,.07,.02,.15,.03,.22,.03,.33,0,.63-.21,.73-.54,.62-2.02,.52-3.94-.27-5.4-.62-1.14-1.65-1.96-2.9-2.32-.41-.12-.83,.12-.95,.53-.12,.41,.12,.83,.53,.95Z"/><path class="cls-7" d="M468.29,68.62c-.42,0-.77,.34-.77,.77v3.17c0,.42,.34,.77,.77,.77s.77-.34,.77-.77v-3.17c0-.42-.34-.77-.77-.77Z"/><path class="cls-7" d="M472.03,68.62c-.42,0-.77,.34-.77,.77v3.17c0,.42,.34,.77,.77,.77s.77-.34,.77-.77v-3.17c0-.42-.34-.77-.77-.77Z"/><path class="cls-7" d="M497.68,70.2h-18.56c-.42,0-.77,.34-.77,.77s.34,.77,.77,.77h18.56c.42,0,.77-.34,.77-.77s-.34-.77-.77-.77Z"/></g><circle class="cls-2" cx="509.38" cy="85.64" r="4.69"/><path class="cls-7" d="M507.12,81.52s2.08,1.45,4.67,.09c0,0-2.2,1.31-2.28,4.06,0,0-.13-2.47-2.39-4.15Z"/><path class="cls-7" d="M511.81,81.58s-.19,2.53,2.29,4.07c0,0-2.18-1.31-4.6,.01,0,0,2.15-1.23,2.3-4.08Z"/><path class="cls-7" d="M504.73,85.68s2.28-1.21,2.37-4.13c0,0,.05,2.7,2.41,4.13,0,0-2.2-1.14-4.78,0Z"/><path class="cls-7" d="M504.72,85.72s2.22,1.33,4.76-.12c0,0-2.29,1.45-2.28,4.2,0,0-.08-2.55-2.48-4.09Z"/><path class="cls-7" d="M511.84,89.6s-2.1-1.29-4.64,.16c0,0,2.32-1.33,2.31-4.08,0,0-.09,2.44,2.34,3.92Z"/><path class="cls-7" d="M509.45,85.63s2.08,1.45,4.62,0c0,0-2.23,1.2-2.23,3.96,0,0,0-2.43-2.4-3.97Z"/></g><g><text class="cls-11" transform="translate(1169.55 125.32)"><tspan x="0" y="0">WC</tspan></text><path class="cls-3" d="M1197.92,50.14c3.6,0,6.52-2.93,6.52-6.52,0-3.6-2.93-6.52-6.52-6.52s-6.52,2.93-6.52,6.52,2.93,6.53,6.52,6.53Zm0-11.94c2.99,0,5.42,2.43,5.42,5.41s-2.43,5.42-5.42,5.42-5.42-2.43-5.42-5.42,2.43-5.41,5.42-5.41Z"/><path class="cls-3" d="M1202.7,51.74h-9.55c-4.06,0-7.36,3.3-7.36,7.36v12.73c0,1.72,1.2,3.2,2.8,3.46,1,.17,1.98-.11,2.74-.75,.03-.02,.05-.04,.08-.07v21.55c0,1.94,1.6,3.52,3.55,3.52,1.25,0,2.35-.65,2.97-1.63,.63,.98,1.73,1.63,2.99,1.63,1.94,0,3.52-1.58,3.52-3.52v-21.57s.05,.06,.08,.09c.75,.64,1.75,.92,2.73,.75,1.6-.26,2.8-1.75,2.8-3.46v-11.71c0-4.86-3.1-8.39-7.36-8.39Zm6.25,20.1c0,1.17-.8,2.19-1.87,2.36-.67,.1-1.33-.07-1.84-.5-.5-.43-.79-1.06-.79-1.72,0,0,0-.01,0-.02v-11.93c0-.31-.25-.55-.55-.55s-.55,.25-.55,.55v11.95s0,0,0,0c0,0,0,.01,0,.02v24.02c0,1.33-1.08,2.42-2.44,2.42s-2.42-1.08-2.42-2.42v-23.58c0-.31-.25-.55-.55-.55s-.55,.25-.55,.55v23.58c0,1.33-1.08,2.42-2.42,2.42s-2.44-1.08-2.44-2.42V60.04c0-.31-.25-.55-.56-.55s-.55,.25-.55,.55v11.95c0,.66-.29,1.29-.79,1.72-.51,.43-1.16,.61-1.84,.5-1.07-.18-1.87-1.19-1.87-2.37v-12.73c0-3.45,2.81-6.25,6.25-6.25h9.55c3.68,0,6.25,2.99,6.25,7.28v11.71h0Z"/><path class="cls-3" d="M1161.09,50.14c3.6,0,6.52-2.93,6.52-6.52s-2.93-6.52-6.52-6.52-6.52,2.93-6.52,6.52,2.93,6.53,6.52,6.53Zm0-11.94c2.99,0,5.42,2.43,5.42,5.41s-2.43,5.42-5.42,5.42-5.42-2.43-5.42-5.42,2.43-5.41,5.42-5.41Z"/><path class="cls-3" d="M1170.2,56.76c-1.15-3.27-3.35-5.15-6.04-5.15h-6.26c-2.69,0-4.89,1.88-6.04,5.15-1.03,2.94-3.69,11.03-4.08,12.7-.2,.86-.06,1.73,.41,2.43,.51,.77,1.37,1.31,2.35,1.47,.77,.13,1.53-.03,2.2-.4l-1.33,6.05c-.04,.16,0,.33,.11,.46,.11,.13,.26,.21,.43,.21h2.56v16.35c.01,1.94,1.6,3.52,3.56,3.52,1.25,0,2.35-.66,2.97-1.64,.63,.98,1.72,1.64,2.97,1.64,1.96,0,3.55-1.58,3.55-3.52v-16.35h2.56c.17,0,.33-.08,.43-.21,.11-.13,.15-.3,.11-.46l-1.33-6.08c.51,.29,1.06,.48,1.65,.48,.18,0,.37-.02,.55-.05,.98-.16,1.84-.7,2.35-1.47,.47-.71,.61-1.57,.41-2.43-.4-1.67-3.05-9.76-4.08-12.7Zm-9.72,39.27c0,1.33-1.08,2.42-2.42,2.42s-2.44-1.08-2.44-2.42v-16.35s4.85,0,4.85,0v16.35Zm5.96,0c0,1.33-1.09,2.42-2.44,2.42s-2.41-1.08-2.41-2.42v-16.35h4.86v16.35Zm6.51-24.75c-.34,.51-.93,.87-1.61,.99-.6,.09-1.19-.04-1.68-.39-.46-.33-.75-.81-.87-1.35l-2.28-10.42c-.07-.3-.35-.49-.66-.42-.3,.07-.49,.36-.42,.66l2.24,10.22s-.01,.02,0,.03c.02,.11,.06,.2,.08,.31l1.68,7.67h-16.79l1.68-7.69c.03-.1,.06-.19,.08-.29,0-.01,0-.02,0-.03l2.24-10.22c.07-.3-.23-.51-.53-.58-.5-.02-.49,.05-.55,.34l-2.28,10.41c-.12,.55-.41,1.03-.87,1.36-.49,.35-1.08,.49-1.68,.39-.68-.11-1.26-.47-1.61-.99-.3-.46-.39-1-.26-1.57,.36-1.52,2.94-9.44,4.05-12.59,1-2.84,2.77-4.4,4.99-4.4h6.26c2.22,0,4,1.57,4.99,4.4,1.11,3.15,3.69,11.07,4.05,12.59,.14,.57,.05,1.11-.25,1.57Z"/><path class="cls-3" d="M1178.87,37.09c-.31,0-.55,.25-.55,.55v61.36c0,.31,.25,.55,.55,.55s.55-.25,.55-.55V37.64c0-.31-.25-.55-.55-.55Z"/><path class="cls-5" d="M1166.67,52.28s-3.85,6.41,.53,13.87c0,0-3.63-6.62-11.43-6.48,0,0,6.5-.45,10.9-7.39Z"/><path class="cls-10" d="M1203.5,60.94s-3.98,6.48,.53,14.01c0,0-4.02-6.5-12.28-6.28,0,0,7.44-.33,11.75-7.73Z"/></g><g><text class="cls-11" transform="translate(897.92 125.62)"><tspan x="0" y="0">Guide e Gruppi</tspan></text><g><path class="cls-1" d="M938.73,63.31c.52,1.12,1.56,1.85,3.09,2.17,.11,.02,1.11,.22,2.39,.22,2.09,0,4.91-.53,5.67-3.2,.39-1.16,1.06-2.37,1.33-2.47,.36,0,.65-.25,.67-.61,.02-.35-.25-.65-.61-.67-1.24-.05-2.17,2.06-2.6,3.36-.92,3.21-6.53,2.13-6.58,2.12-1.13-.24-1.84-.72-2.19-1.46-.78-1.68,.52-4.17,.55-4.23,.62-1.39,.67-2.59,.13-3.56-.86-1.56-2.89-1.86-2.98-1.87-.05,0-.1,0-.15,0-1.05,.1-1.85,.51-2.37,1.2-.84,1.13-.58,2.58-.57,2.64,.07,.35,.4,.57,.74,.51,.35-.07,.57-.4,.51-.74,0,0-.17-.97,.34-1.65,.28-.38,.75-.61,1.39-.69,.3,.06,1.5,.34,1.98,1.22,.33,.61,.27,1.42-.16,2.38-.07,.12-1.61,3.07-.56,5.33Z"/><path class="cls-1" d="M937.17,59.99c.89-1.25,.58-3.01,.56-3.08-.06-.35-.4-.58-.74-.51-.35,.06-.57,.4-.51,.74,0,.01,.22,1.31-.35,2.11-.25,.34-.61,.55-1.18,.64-.03,0-.64,.16-1.16-.24-.55-.42-.86-1.33-.89-2.65,0-.35-.29-.62-.65-.62-.35,0-.63,.3-.62,.65,.04,1.76,.52,2.99,1.41,3.65,.53,.39,1.09,.49,1.51,.51,.06,.85-.03,1.87-.47,2.16-.38,.25-1.2,0-2.25-.67-.29-.19-.69-.11-.88,.19-.19,.29-.11,.69,.19,.88,1.01,.65,1.86,.98,2.57,.98,.4,0,.76-.11,1.08-.32,1.1-.73,1.11-2.48,1.02-3.42,.56-.19,1.01-.53,1.35-1Z"/><path class="cls-1" d="M941.91,62.32c.51,.71,1.35,1.07,2.53,1.07,.18,0,.37,0,.56-.03,.14-.02,1.39-.19,1.95-1.13,.22-.37,.4-1.01,.04-1.9-.01-.03-.03-.06-.04-.08-.46-.79-1.57-3.17-1.12-4.73,.16-.54,.49-.94,1.02-1.21,.31-.16,.44-.54,.28-.86-.16-.31-.54-.44-.86-.28-.85,.43-1.41,1.1-1.67,1.99-.66,2.28,.98,5.27,1.22,5.69,.12,.32,.13,.56,.03,.74-.2,.34-.81,.49-.98,.52-.97,.08-1.62-.09-1.93-.52-.57-.79-.07-2.4,.17-2.95,.14-.32,0-.7-.33-.84-.32-.14-.7,0-.84,.33-.12,.27-1.12,2.68-.04,4.2Z"/><path class="cls-1" d="M947.01,57.58c.31,.16,.7,.05,.86-.26,.23-.44,.94-1.39,1.52-1.39,0,0,0,0,.01,0,.39,0,.84,.49,1.26,1.37,.11,.23,.34,.36,.57,.36,.09,0,.19-.02,.27-.06,.32-.15,.45-.53,.3-.85-.65-1.37-1.46-2.07-2.38-2.09-1.52-.03-2.57,1.85-2.68,2.06-.16,.31-.05,.7,.26,.86Z"/><path class="cls-1" d="M932.47,54.45c.06,.04,.24,.18,.26,.63,.01,.34,.3,.61,.64,.61,0,0,.02,0,.02,0,.35-.01,.62-.31,.61-.66-.03-.88-.44-1.36-.77-1.61-.94-.69-2.31-.36-2.46-.32-.34,.09-.54,.44-.45,.77,.09,.34,.43,.54,.77,.46,.24-.06,1.01-.17,1.39,.11Z"/><path class="cls-1" d="M944.33,53.88c.35-.01,.62-.31,.61-.66-.01-.35-.3-.62-.66-.61-1.08,.04-1.82,.37-2.21,.97-.5,.77-.17,1.63-.13,1.72,.1,.24,.34,.39,.58,.39,.08,0,.16-.01,.24-.04,.32-.13,.48-.5,.36-.82,0,0-.12-.34,.02-.56,.15-.22,.58-.36,1.18-.39Z"/><path class="cls-1" d="M936.51,65.69c.05,0,.1,0,.16-.02,1.26-.32,1.15-2.2,1.13-2.41-.03-.35-.34-.61-.68-.58-.35,.03-.61,.33-.58,.68,.03,.43-.06,.99-.18,1.08-.34,.09-.55,.43-.46,.77,.07,.29,.33,.48,.62,.48Z"/><path class="cls-1" d="M964.61,65.93c2.96,0,5.37-2.41,5.37-5.37s-2.41-5.37-5.37-5.37-5.37,2.41-5.37,5.37,2.41,5.37,5.37,5.37Zm0-9.47c2.26,0,4.1,1.84,4.1,4.1s-1.84,4.1-4.1,4.1-4.1-1.84-4.1-4.1,1.84-4.1,4.1-4.1Z"/><path class="cls-1" d="M923.75,86.4c0-2.96-2.41-5.37-5.37-5.37s-5.37,2.41-5.37,5.37,2.41,5.37,5.37,5.37,5.37-2.41,5.37-5.37Zm-9.47,0c0-2.26,1.84-4.1,4.1-4.1s4.1,1.84,4.1,4.1-1.84,4.1-4.1,4.1-4.1-1.84-4.1-4.1Z"/><path class="cls-1" d="M924.91,96.78c.35,0,.64-.28,.64-.64,0-2.89-2.59-3.65-3.96-3.65h-6.43c-1.37,0-3.96,.76-3.96,3.65,0,.35,.28,.64,.64,.64s.64-.28,.64-.64c0-2.29,2.41-2.37,2.68-2.38h6.43c.11,0,2.68,.03,2.68,2.38,0,.35,.28,.64,.64,.64Z"/><path class="cls-1" d="M972.61,83.17c-2.96,0-5.37,2.41-5.37,5.37s2.41,5.37,5.37,5.37,5.37-2.41,5.37-5.37-2.41-5.37-5.37-5.37Zm0,9.47c-2.26,0-4.1-1.84-4.1-4.1s1.84-4.1,4.1-4.1,4.1,1.84,4.1,4.1-1.84,4.1-4.1,4.1Z"/><path class="cls-1" d="M975.83,94.64h-6.43c-1.37,0-3.96,.76-3.96,3.65,0,.35,.28,.64,.64,.64s.64-.28,.64-.64c0-2.29,2.41-2.37,2.68-2.38h6.43c.11,0,2.68,.03,2.68,2.38,0,.35,.28,.64,.64,.64s.64-.28,.64-.64c0-2.89-2.59-3.65-3.96-3.65Z"/><path class="cls-1" d="M925.77,89.78c0,2.96,2.41,5.37,5.37,5.37s5.37-2.41,5.37-5.37-2.41-5.37-5.37-5.37-5.37,2.41-5.37,5.37Zm5.37-4.1c2.26,0,4.1,1.84,4.1,4.1s-1.84,4.1-4.1,4.1-4.1-1.84-4.1-4.1,1.84-4.1,4.1-4.1Z"/><path class="cls-1" d="M934.36,95.87h-6.43c-1.37,0-3.96,.76-3.96,3.65,0,.35,.28,.64,.64,.64s.64-.28,.64-.64c0-2.29,2.41-2.37,2.68-2.38h6.43c.11,0,2.68,.03,2.68,2.38,0,.35,.28,.64,.64,.64s.64-.28,.64-.64c0-2.89-2.59-3.65-3.96-3.65Z"/><path class="cls-1" d="M941.15,88.63c0,2.96,2.41,5.37,5.37,5.37s5.37-2.41,5.37-5.37-2.41-5.37-5.37-5.37-5.37,2.41-5.37,5.37Zm9.47,0c0,2.26-1.84,4.1-4.1,4.1s-4.1-1.84-4.1-4.1,1.84-4.1,4.1-4.1,4.1,1.84,4.1,4.1Z"/><path class="cls-1" d="M949.73,94.72h-6.43c-1.37,0-3.96,.76-3.96,3.65,0,.35,.28,.64,.64,.64s.64-.28,.64-.64c0-2.29,2.41-2.37,2.68-2.38h6.43c.35,0,.64-.28,.64-.64s-.28-.64-.64-.64Z"/><path class="cls-1" d="M958.18,84.41c-2.96,0-5.37,2.41-5.37,5.37s2.41,5.37,5.37,5.37,5.37-2.41,5.37-5.37-2.41-5.37-5.37-5.37Zm0,9.47c-2.26,0-4.1-1.84-4.1-4.1s1.84-4.1,4.1-4.1,4.1,1.84,4.1,4.1-1.84,4.1-4.1,4.1Z"/><path class="cls-1" d="M961.4,95.87h-6.43c-1.37,0-3.96,.76-3.96,3.65,0,.35,.28,.64,.64,.64s.64-.28,.64-.64c0-2.29,2.41-2.37,2.68-2.38h6.43c.11,0,2.68,.03,2.68,2.38,0,.35,.28,.64,.64,.64s.64-.28,.64-.64c0-2.89-2.59-3.65-3.96-3.65Z"/><path class="cls-1" d="M929.09,80.89c-.35,0-.64,.28-.64,.64v2.37c0,.35,.28,.64,.64,.64s.64-.28,.64-.64v-1.74h23.91v.66c0,.35,.28,.64,.64,.64s.64-.28,.64-.64v-1.3c0-.35-.28-.64-.64-.64h-5.15l-.2-1.77c.44-.57,1.51-2.2,2.56-5.46l6.02,3.58c.22,.13,.5,.12,.71-.04l2.12-1.58,.66,5.9v1.3c0,.35,.28,.64,.64,.64s.64-.28,.64-.64v-1.37s-.79-7.07-.79-7.07c-.03-.23-.17-.42-.38-.51-.21-.09-.45-.06-.63,.07l-2.67,1.99-8.61-5.12s-.04-.01-.06-.02c-.02,0-.04-.03-.06-.03l-3.34-1.13c-.26-.51-.21-1.07-.12-1.46l2.06,.67c.24,.08,.49-.02,.66-.2,.1-.11,.16-.27,.16-.42l.77,1.37c.07,.12,.17,.21,.29,.27l7.63,3.44c.08,.04,.17,.06,.26,.06,.21,0,.4-.1,.53-.28l2.45-3.58s.04-.06,.05-.09c.42-.88,2.91-1.08,4.61-.93h3.83c.09,0,2.19,.1,2.34,2.85h-3.2c-.18,0-.36,.08-.48,.22s-.18,.32-.15,.5l.88,6.96s.02,.06,.03,.09c0,.03,.02,.07,.03,.1,.02,.04,.05,.08,.08,.12,.02,.02,.03,.05,.06,.07,.04,.04,.08,.06,.13,.09,.02,.01,.04,.03,.07,.04,.07,.03,.15,.05,.24,.05,0,0,0,0,0,0,0,0,0,0,0,0h.73l-.18,1.76c-.04,.35,.22,.66,.57,.7,.02,0,.04,0,.07,0,.32,0,.6-.24,.63-.57l.19-1.89h3.53c.33,0,.6-.25,.63-.57l.04-.38c.91-.31,1.25-1.42,1.3-2.06,.18-.91,.08-1.63-.32-2.12-.15-.19-.32-.3-.49-.39l.21-2.01c.02-.18-.04-.36-.16-.49-.12-.13-.29-.21-.47-.21h-2.69c-.14-3.18-2.37-4.1-3.59-4.13h-3.79c-.8-.07-4.81-.33-5.79,1.61l-2.12,3.1-6.95-3.14-1.12-1.99c-.15-.26-.46-.38-.74-.29-.13,.04-.82,.28-1.11,.89l-1.87-.61c-.3-.1-.62,.04-.76,.32-.04,.07-.93,1.86,.12,3.43,.08,.12,.19,.21,.33,.25l3.51,1.18,1.78,1.06c-1.25,4.03-2.56,5.48-2.57,5.49-.13,.14-.19,.32-.17,.51l.21,1.89h-13.15l.08-1.33h6.91c.35,0,.64-.28,.64-.64s-.28-.64-.64-.64h-7.2c-.81-1.1-4.51-6.96-4.75-23.22,0-.24,.05-5.8,4.55-6.55,.05,0,.1-.02,.14-.04,.8-.34,2.18-1.48,1.69-3.4,0-.04-.02-.07-.04-.1l-.29-.65h9.15c.35,0,.64-.28,.64-.64s-.28-.64-.64-.64h-9.2c.44-.7,1.51-1.68,4.02-1.87,.19-.01,.37-.11,.47-.27,.11-.16,.14-.36,.09-.54-.03-.1-.1-.55,.08-.79,.15-.2,.5-.24,.77-.24,.02,0,.04-.01,.06-.01,.02,0,.04,.01,.06,.01,.26,0,.61,.04,.76,.24,.18,.23,.11,.67,.08,.8-.05,.18-.02,.38,.09,.54,.11,.16,.28,.26,.47,.27,3.37,.25,4.14,1.92,4.29,2.43l-.61,1.35s-.03,.07-.04,.1c-.5,1.92,.89,3.07,1.69,3.4,.05,.02,.09,.03,.14,.04,2.59,.43,3.7,2.45,4.18,4.14-.68-.19-1.39-.14-1.84-.02-.34,.09-.54,.43-.46,.77,.09,.34,.43,.54,.77,.46,.01,0,1.39-.34,1.85,.51,.04,.38,.04,.63,.04,.68-.05,3.38-.26,6.52-.61,9.39-.04,0-.08-.03-.13-.03h-1.31c-.35,0-.64,.28-.64,.64s.28,.64,.64,.64h1.27c-.04,.32-.08,.65-.13,.96-.05,.35,.18,.67,.53,.73,.03,0,.07,0,.1,0,.31,0,.58-.22,.63-.54,.55-3.48,.86-7.45,.93-11.79,0-2.36-1.15-7-5.53-7.79-.27-.13-1.18-.68-.91-1.84l.68-1.49c.05-.11,.07-.23,.05-.35-.02-.13-.46-3.03-4.84-3.62,0-.36-.09-.79-.37-1.17-.26-.34-.78-.75-1.78-.75-.02,0-.04,.01-.06,.01-.02,0-.04-.01-.06-.01-1.01,0-1.53,.41-1.78,.75-.28,.38-.37,.81-.37,1.17-4.39,.59-4.83,3.49-4.84,3.62,0,.02,0,.04,0,.06,0,.01,0,.02,0,.03,0,.01,0,.02,0,.03,0,.07,.02,.13,.04,.19,0,.01,0,.02,0,.03,0,0,0,0,0,0l.68,1.49c.27,1.16-.65,1.71-.91,1.84-4.38,.79-5.53,5.43-5.53,7.8,.26,16.94,4.15,22.89,5.07,24.07l-.1,1.75h-4.33Zm46.07-4.5c-.01,.17-.16,1.05-.56,1.05v.4s0,0,0,0v-.4c-.67,0-1.21-.53-1.21-1.17s.54-1.17,1.21-1.17c.08,0,.15,0,.22,.02,.03,0,.07,0,.1,0,0,0,.11,.02,.19,.12,.07,.08,.21,.36,.05,1.15Zm-.81-2.55c-1.25,.12-2.24,1.15-2.24,2.42,0,.84,.44,1.59,1.1,2.03h-3.74l-.72-5.69h5.73l-.13,1.23Z"/></g><path class="cls-4" d="M968.7,68.4s-2.38,5.46,1.93,10.81c0,0-3.82-4.61-10.21-3.54,0,0,5.73-1.07,8.28-7.27Z"/></g><g><text class="cls-11" transform="translate(689.95 126.64)"><tspan x="0" y="0">Famiglie</tspan></text><path class="cls-9" d="M750.68,72.02l-4.91-9.71c-1.16-2.4-2.17-4.48-3.53-6-2.66-3.02-6.18-2.61-6.18-2.61,2.16-1.39,3.6-3.81,3.6-6.58,0-4.31-3.5-7.81-7.81-7.81s-7.81,3.5-7.81,7.81c0,2.76,1.44,5.19,3.6,6.58,0,0-2.41-.21-4.58,1.31-2.18-1.41-4.8-1.3-4.8-1.3,2.17-1.39,3.61-3.82,3.61-6.58,0-4.31-3.5-7.81-7.81-7.81s-7.81,3.5-7.81,7.81c0,2.76,1.44,5.19,3.6,6.58,0,0-3.57-.33-6.21,2.71-.69,.79-2.02,3.24-3.21,5.57,.33-2.51-1.75-6.31-5.87-6.31-3.25,0-5.89,2.64-5.89,5.89,0,1.93,.78,3.41,2.36,4.72-3.71,.06-5.29,3.34-6.83,6.53l-3.13,6.45c-.47,1.02-.69,3.11,1.5,4.27,3.48,1.38,4.54-2.1,4.54-2.1l-1.96,8.67h3.53v7.07c0,1.85,1.51,3.36,3.36,3.36,1.02,0,1.93-.45,2.54-1.17,.62,.72,1.53,1.17,2.54,1.17,1.85,0,3.36-1.51,3.36-3.36v-6.98h3.74s-.93-3.76-.93-3.76h3.02v9.92c0,2.33,1.89,4.22,4.22,4.22,1.52,0,2.85-.81,3.6-2.02,.74,1.2,2.07,2,3.58,2,2.33,0,4.22-1.89,4.22-4.22v-9.89h2.16v9.89c0,2.33,1.89,4.22,4.22,4.22,1.51,0,2.84-.8,3.58-2,.74,1.21,2.08,2.02,3.6,2.02,2.33,0,4.22-1.89,4.22-4.22v-27.97l3.78,7.14c.62,1.37,2.75,3.01,5.35,1.83,1.98-.97,2.81-3.36,1.85-5.34Zm-25.38-24.89c0-3.62,2.93-6.55,6.55-6.55s6.55,2.93,6.55,6.55-2.93,6.55-6.55,6.55c-3.62,0-6.55-2.93-6.55-6.55Zm-17.79,0c0-3.62,2.93-6.55,6.55-6.55s6.55,2.93,6.55,6.55-2.93,6.55-6.55,6.55c-3.62,0-6.55-2.93-6.55-6.55Zm-17.58,14.43c0-2.56,2.08-4.64,4.64-4.64s4.64,2.08,4.64,4.64-2.08,4.64-4.64,4.64-4.64-2.08-4.64-4.64Zm9.27,27.54v8.08c0,1.14-.93,2.07-2.07,2.07s-2.07-.93-2.07-2.07v-8.08h-.94v8.08c0,1.14-.93,2.07-2.07,2.07s-2.07-.93-2.07-2.07v-8.08s-3.31,0-3.31,0l3.31-15.93-4.3,8.32c-.25,.51-1.03,1.51-2.56,.88-.96-.44-1.34-1.6-.88-2.55l3.12-6.42c1.7-3.51,2.84-5.92,6.22-5.92h6.02c3.38,0,4.53,2.41,6.22,5.92l3.1,6.36c.46,.95,.08,2.11-.88,2.55-1.25,.69-2.31-.37-2.56-.88l-4.28-8.26,3.52,15.93h-3.52Zm49.08-12.86c-1.81,.83-3.2-.29-3.67-1.26l-6.19-11.96v33.34c0,1.62-1.31,2.93-2.93,2.93s-2.93-1.31-2.93-2.93v-17.1h-1.31v17.08c0,1.62-1.31,2.93-2.93,2.93s-2.93-1.31-2.93-2.93V63.02l-3.5,6.77,3.23,15.36h-4.46v11.2c0,1.62-1.31,2.93-2.93,2.93s-2.93-1.31-2.93-2.93v-11.2h-1.31v11.22c0,1.62-1.31,2.93-2.93,2.93s-2.93-1.31-2.93-2.93v-11.22h-4.55l.38-1.88c.2,.13,1.47,.99,3.13,.21,.89-.41,2.58-1.89,1.5-4.27l-2.67-5.51,2.2-10.68-3.74,7.22c-1.11-2.15-2.31-3.4-4.3-3.81l1.5-3.08c2.4-4.97,4.02-8.38,8.81-8.38h8.52c1.62,0,3.25,.53,3.73,.94-1.42,1.14-2.6,3.46-2.6,3.46l.48,1.57c1.8-3.58,3.88-5.97,7.62-5.97h8.52c4.79,0,6.29,3.41,8.7,8.38l4.7,9.23c.66,1.36,.09,3-1.27,3.66Zm-24.19-7.81l-.03,6.03-.76-4.41,.78-1.62Z"/><path class="cls-4" d="M722.31,54.42s-5.01,8.16,.67,17.64c0,0-5.06-8.19-15.47-7.91,0,0,9.37-.42,14.8-9.73Z"/><path class="cls-4" d="M738.48,62.79s-5.01,8.16,.67,17.64c0,0-5.06-8.19-15.47-7.91,0,0,9.37-.42,14.8-9.73Z"/><path class="cls-4" d="M699.27,66.81s-2.85,6.53,2.31,12.93c0,0-4.57-5.51-12.22-4.23,0,0,6.86-1.28,9.9-8.7Z"/></g></svg>