<?xml version="1.0" encoding="UTF-8"?><svg id="Livello_1" xmlns="http://www.w3.org/2000/svg" viewBox="0 0 300 300"><defs><style>.cls-1{fill:#b11c1d;}</style></defs><path class="cls-1" d="M116.25,168.99v5.55h-51.48v-5.52h12.92c0-.45,0-.75,0-1.06,0-24.39,0-48.77,0-73.16,0-9.18-7.34-16.93-16.48-17.64-10.34-.8-19.37,7.4-19.29,17.95,0,.03,0,.06,0,.09-.02,24.24-.04,48.48-.09,72.72,0,.88,.22,1.12,1.1,1.11,4.68-.05,9.36-.02,14.04-.02h1.07v5.54H18.96V64.76h22.88v17.19c6.6-11.97,16.41-18.43,30.05-17.54,13.62,.89,22.48,8.58,27.4,21.01,4.79-12.24,13.5-19.88,26.86-20.98,13.32-1.1,23.17,4.95,29.96,16.34,.86-1.12,1.68-2.3,2.6-3.38,7.33-8.57,16.64-13.07,27.92-13.12,19.01-.08,38.03,0,57.04,.03,12.92,.01,25.84,.02,38.75,.03,.37,0,.74,0,1.16,0v34.09h-6.48c0-.39,0-.75,0-1.12-.08-3.23,.19-6.52-.32-9.68-1.3-8.05-6.19-13.33-13.66-16.32-2.39-.96-4.89-1.31-7.46-1.31-10.06,0-20.11-.02-30.17-.07-.82,0-1.08,.19-1.07,1.04,.03,13.93,.02,27.85,.02,41.78,0,.31,.03,.62,.05,1.01,.39,0,.7,0,1.01,0,5.66,0,11.33,0,16.99,0,6.35,0,11.33-4.99,11.34-11.33,0-3.03,0-6.07,0-9.1v-1.05c1.81,0,3.54,0,5.26,.02,.12,0,.3,.24,.34,.39,.06,.25,.03,.52,.03,.78,0,15.75,0,31.5,0,47.24,0,.34,0,.69,0,1.1h-5.58c-.01-.28-.04-.59-.04-.89,0-3.09,0-6.18,0-9.28-.01-6.21-5.04-11.24-11.26-11.26-5.72-.01-11.44,0-17.17,0h-.91v48.6h13.41v5.63h-.96c-8.01,0-16.01,0-24.02,0-6.56,0-11.47-4.92-11.47-11.45,0-1.07,0-2.13-.16-3.29-.16,.24-.32,.47-.47,.72-4.31,7.12-10.52,11.63-18.65,13.4-1.88,.41-3.84,.59-5.76,.6-17.37,.04-34.74,.03-52.1,.03-.31,0-.62,0-.97,0v-5.59h13.12c.02-.37,.05-.68,.05-.98,0-14.16,0-28.31,0-42.47,0-10.26-.03-20.51-.04-30.77,0-9.16-7.36-16.95-16.48-17.65-10.7-.81-19.35,7.83-19.32,18.03,.08,24.18,.03,48.37,.03,72.56q0,1.26,1.25,1.26c4.39,0,8.79,0,13.18,0h1.13Zm85.19-48.78c-.28-.03-.42-.07-.56-.06-1.92,.18-3.86,.26-5.77,.56-10.09,1.62-18.5,6.3-25.16,14.04-3.42,3.98-4.81,8.67-4.1,13.86,1.41,10.24,10.68,16.97,20.87,15.27,8.34-1.39,14.76-8.97,14.75-17.44,0-8.38-.02-16.75-.03-25.13,0-.34,0-.68,0-1.1Zm-41.91,1.99c.38-.14,.65-.22,.91-.33,12.83-5.27,26.16-8.07,40.05-8.15,.78,0,.97-.23,.96-.98-.03-3.78-.01-7.57,.02-11.35,.03-4-.81-7.8-2.67-11.35-6.9-13.19-24.89-17.02-36.87-8.32-1.17,.85-2.13,2.01-3.1,3.11-.4,.44-.67,1.08-.27,1.74,6.11-4.58,13.15-3,17.08,.82,4.02,3.9,5.04,10.34,2.3,15.25-1.82,3.26-4.54,5.44-8.19,6.31-3.6,.86-7.02,.27-10.23-1.77v15.02Z"/><path class="cls-1" d="M9.43,32.58H292.14c-2.22,5.67-4.4,11.24-6.59,16.84h-1.09c-89.13,0-178.25,0-267.38,.02-.89,0-1.22-.29-1.52-1.08-1.81-4.75-3.69-9.47-5.54-14.2-.19-.48-.36-.96-.6-1.59Z"/><path class="cls-1" d="M202.99,259.62c-.19-.39-.45-.76-.56-1.17-1.59-5.52-3.15-11.04-4.73-16.57-.07-.25-.14-.49-.33-.74-.02,.28-.05,.56-.05,.85,0,5.2,.01,10.4,.02,15.6,0,1.07,.29,1.32,1.38,1.43,.46,.05,.89,.3,1.33,.46-.31,.69-.89,.33-1.36,.34-1.41,.04-2.83,.03-4.24,.04-.23,0-.48,.06-.69-.01-.2-.08-.36-.29-.53-.44,.17-.12,.33-.31,.52-.34,.43-.06,.87,0,1.3-.05,.69-.07,1.1-.4,1.1-1.17-.02-6.21,0-12.42-.03-18.63,0-1.17-.23-1.3-1.57-1.46-.39-.05-1.05,.28-1.05-.47,0-.13,.75-.36,1.15-.37,1.68-.04,3.35,.01,5.03-.03,.68-.02,.95,.22,1.13,.87,1.13,4.24,2.3,8.47,3.46,12.7,.07,.27,.17,.53,.33,1.03,.45-1.75,.85-3.28,1.24-4.81,.76-2.96,1.53-5.92,2.25-8.9,.17-.7,.46-.91,1.17-.89,1.88,.05,3.76,.02,5.63,.02,.26,0,.53-.02,.77,.07,.15,.05,.23,.27,.35,.41-.14,.11-.27,.3-.43,.32-.37,.05-.75,0-1.12,.02-1.09,.03-1.38,.32-1.38,1.42,0,3,0,6.01,0,9.02,0,3.03,0,6.07,0,9.1,0,.29-.05,.6,.04,.86,.09,.27,.29,.64,.51,.69,.24,.06,.63-.13,.81-.33,.23-.27,.36-.66,.47-1.01,2.07-6.46,4.13-12.92,6.19-19.38,.15-.48,.33-.96,.5-1.43,.09-.01,.19-.02,.28-.03,.15,.34,.34,.66,.46,1.01,2.07,6.28,4.14,12.55,6.21,18.83,.18,.55,.41,1.08,.62,1.61,.25,.63,.76,.86,1.4,.78,.7-.09,.72-.68,.73-1.19,.03-1.85,.03-3.7,.04-5.55,0-4.31,0-8.61,0-12.92,0-1.28-.09-1.38-1.34-1.47-.2-.01-.42-.03-.59-.11-.12-.06-.24-.23-.26-.37-.01-.08,.16-.23,.28-.27,.16-.06,.34-.06,.51-.06,2.43,0,4.86-.01,7.28,.01,.26,0,.53,.22,.79,.34-.26,.15-.51,.41-.79,.44-1.22,.13-1.35,.23-1.35,1.5,0,5.95,0,11.9,0,17.86,0,1.64,.03,1.65,1.64,1.9,.26,.04,.48,.29,.72,.45-.25,.13-.5,.37-.75,.37-4.88,.03-9.76,.03-14.64,.04-.17,0-.37,.03-.51-.03-.22-.09-.4-.26-.6-.39,.18-.15,.34-.4,.54-.44,.45-.09,.92-.08,1.38-.11,.54-.04,.78-.24,.6-.84-.49-1.66-.91-3.34-1.42-5-.07-.22-.42-.49-.64-.5-1.3-.04-2.6,0-3.9,0-.45,0-.74,.13-.88,.62-.43,1.5-.93,2.98-1.36,4.47-.27,.96-.07,1.17,.89,1.31,.47,.07,.91,.3,1.36,.46-.29,.74-.93,.42-1.42,.42-3.32,.06-6.64,.07-9.97,.1-.26,0-.54,.05-.77-.03-.2-.07-.34-.29-.51-.45,.17-.12,.33-.33,.51-.35,.51-.06,1.04,0,1.56-.05,.54-.05,.92-.28,.92-.92,0-5.83,0-11.67-.19-17.55-.18,.58-.39,1.15-.54,1.73-1.33,5.2-2.64,10.41-3.97,15.61-.15,.59-.4,1.15-.61,1.73-.11,0-.22,0-.33,0Zm19.41-8.13c-.74-2.38-1.45-4.67-2.17-6.96-.06,0-.12,0-.19,0-.7,2.3-1.39,4.6-2.1,6.95h4.46Z"/><path class="cls-1" d="M266.03,247.71c.43,.11,.74,.18,1.04,.26,1.74,.46,3.06,1.48,3.56,3.22,.43,1.48,.61,3.04,.89,4.57,.15,.79,.21,1.61,.42,2.38,.15,.58,.47,1.12,1.35,1.06-.59-.54-.88-1.12-.4-1.72,.18-.23,.86-.39,.97-.27,.42,.45,.7,1.04,1.15,1.77,1.21,.23,1.71-.12,1.72-1.66,.02-6.15,0-12.31,.02-18.46,0-.77-.33-1.12-1.09-1.12-.17,0-.37,.03-.51-.04-.23-.11-.42-.29-.62-.44,.21-.11,.42-.32,.63-.32,2.54-.02,5.09-.03,7.63,0,.23,0,.45,.24,.68,.37-.22,.14-.44,.4-.66,.4-1.68,.01-1.5,.55-1.5,1.68,0,5.84,0,11.67,0,17.51,0,.2,0,.4,0,.61,.07,1.21,.15,1.29,1.37,1.42,.09,0,.19-.01,.26,.03,.24,.14,.47,.31,.7,.46-.25,.13-.5,.36-.75,.36-1.96,.02-3.93-.01-5.89-.03-.83,0-1.67-.02-2.5-.02-.11,0-.23,0-.33,.04-3.36,1.32-6.64-.43-7.33-3.98-.32-1.61-.4-3.27-.71-4.88-.14-.74-.46-1.53-.93-2.09-.39-.46-1.14-.63-1.9-1-.04,.53-.08,.78-.08,1.03,0,2.89,0,5.78,0,8.67,0,1.24,.16,1.36,1.38,1.47,.41,.04,.79,.28,1.19,.43-.39,.14-.78,.39-1.17,.39-2.4,.04-4.8,.02-7.2,.02-.17,0-.36,.04-.52-.01-.22-.07-.42-.21-.63-.32,.21-.15,.4-.34,.64-.43,.21-.08,.45-.08,.68-.09,.72-.02,1.05-.38,1-1.1,0-.09,0-.17,0-.26,0-6.13,0-12.25,0-18.38,0-1.22-.16-1.39-1.38-1.47-.68-.04-1.36-.09-2.04-.05-1.19,.07-1.29,.2-1.29,1.44,0,4.25,0,8.5,0,12.74,0,.92-.04,1.85-.16,2.76-.59,4.51-3.59,6.15-7.77,5.55-3.04-.44-4.84-2.58-5.08-6-.16-2.21-.16-4.44-.18-6.66-.03-2.83-.03-5.66,0-8.49,.01-.85-.34-1.23-1.13-1.29-.2-.01-.43,.02-.6-.06-.22-.11-.4-.31-.59-.47,.2-.12,.41-.34,.61-.34,2.63-.02,5.26-.03,7.89,0,.21,0,.42,.27,.64,.42-.22,.14-.43,.34-.67,.41-.24,.08-.52,.03-.77,.05-.5,.05-.79,.31-.79,.84,0,.12-.02,.23-.02,.35,.03,5.08,.04,10.17,.1,15.25,0,.68,.17,1.38,.39,2.03,.52,1.55,1.72,2.34,3.37,2.33,1.56-.01,2.72-.76,3.1-2.38,.38-1.65,.58-3.36,.62-5.05,.09-3.9,.03-7.8,.03-11.7,0-1.45-.12-1.57-1.56-1.68-.23-.02-.47-.05-.66-.15-.12-.06-.25-.27-.24-.39,.02-.12,.21-.22,.33-.32,.04-.03,.11-.02,.17-.02,1.73,.02,3.46,.04,5.19,.06,.23,0,.45,0,.68,0,3.49,.05,6.99,.06,10.48,.17,1.4,.04,2.65,.59,3.53,1.76,2.06,2.71,1.07,6.53-2.07,7.93-.83,.37-1.72,.59-2.7,.92Zm-2.81-.53c1.61-.01,2.81-.49,3.37-1.9,.75-1.91,.79-3.89,.21-5.86-.27-.9-.94-1.43-1.87-1.61-1.09-.21-1.62,.15-1.65,1.26-.05,1.99-.04,3.98-.05,5.97,0,.69,0,1.37,0,2.13Z"/><path class="cls-1" d="M147.75,237.89v9.49c1.39-.19,2.75-.3,4.07-.6,.35-.08,.69-.69,.83-1.12,.24-.73,.3-1.53,.48-2.28,.05-.22,.26-.4,.4-.59,.13,.22,.36,.45,.36,.67,0,1.24-.08,2.48-.09,3.72,0,1.59,.05,3.18,.04,4.76,0,.27-.19,.55-.28,.82-.17-.25-.43-.48-.49-.76-.19-.87-.29-1.76-.47-2.64-.16-.78-.68-1.21-1.46-1.24-1.09-.04-2.19,0-3.36,0v10.69c1.4,0,2.8-.01,4.21,0,3.87,.05,4.35-1.61,4.76-4.3,.06-.4,.32-.78,.48-1.16,.11,.41,.31,.82,.32,1.24,.04,1.76,.02,3.51,.02,5.28-1.52,0-2.86,0-4.2,0-3.84-.03-7.68-.06-11.53-.09-.23,0-.48,.04-.69-.02-.18-.06-.33-.24-.49-.37,.16-.13,.32-.26,.49-.39,.02-.02,.06-.02,.08-.02,2.06-.04,1.84-.61,1.86-2.21,.02-1.38,0-2.77,0-4.2-.29-.03-.51-.08-.73-.08-1.56,0-3.12-.02-4.68,.01-.29,0-.72,.17-.83,.39-.73,1.54-1.42,3.09-2.05,4.67-.36,.91-.15,1.16,.85,1.28,.09,.01,.18,0,.26,.03,.35,.16,.68,.34,1.02,.51-.36,.13-.72,.37-1.09,.39-1.07,.05-2.14,.02-3.21,.02-4.84,0-9.68,0-14.52,0-.48,0-.97-.13-1.45-.12-.35,.01-.69,.26-1.03,.26-4.36-.03-8.72-.09-13.09-.14-.12,0-.25,.02-.34-.02-.26-.12-.5-.27-.75-.42,.25-.14,.49-.36,.75-.39,1.55-.19,1.69-.31,1.69-1.89,0-5.92,0-11.85,0-17.77,0-1.38-.13-1.49-1.51-1.61-.25-.02-.49-.26-.73-.4,.23-.12,.46-.35,.69-.35,2.48-.03,4.97-.03,7.46,0,.23,0,.46,.22,.69,.34-.23,.15-.45,.42-.69,.45-1.38,.16-1.41,.15-1.4,1.59,.02,6.24,.06,12.48,.07,18.72,0,.62,.14,.91,.82,.86,.92-.08,1.85-.03,2.76-.15,1.87-.24,2.81-1.14,3.25-2.98,.14-.59,.22-1.19,.36-1.78,.06-.24,.21-.45,.32-.68,.09,.02,.19,.04,.28,.05v5.81c.4-.09,.64-.16,.88-.19,1.75-.22,1.81-.26,1.81-2.03,0-5.81,0-11.62,0-17.42,0-.14,0-.29-.01-.43-.07-1.17-.22-1.29-1.4-1.37-.29-.02-.56-.25-.84-.38,.28-.13,.56-.37,.84-.37,2.43-.03,4.85-.03,7.28,0,.25,0,.49,.24,.74,.37-.25,.14-.48,.38-.74,.41-1.3,.14-1.34,.12-1.34,1.45,0,6.33,.05,12.65,.06,18.98,0,.59,.24,.78,.78,.72,.23-.02,.46-.02,.69-.03,3.01-.17,4.03-1.09,4.55-4.06,.07-.42,.17-.85,.27-1.27,.02-.07,.12-.12,.34-.32,.1,.4,.24,.69,.23,.98-.02,1.3-.08,2.6-.13,3.89,0,.28,0,.57,0,.84,1.86,.18,2.3-.06,3.03-1.66,3.01-6.56,6.02-13.12,9-19.69,.24-.53,.53-.7,1.11-.7,3.76,.02,7.51,0,11.27-.03,.63,0,1.26-.05,1.98-.08,.1,1.33,.19,2.62,.29,3.9,.04,.55,.12,1.09,.12,1.64,0,.21-.19,.42-.3,.63-.16-.17-.39-.31-.47-.52-.11-.29-.1-.62-.17-.93-.44-2.19-1.55-3.32-3.77-3.54-1.48-.14-2.99-.03-4.59-.03Zm-10.27,13.61c1.64,0,3.16-.03,4.69,.01,.71,.02,.94-.18,.94-.92-.04-3.49-.01-6.99-.02-10.48,0-.2-.05-.41-.1-.86-1.89,4.2-3.67,8.15-5.5,12.24Z"/><path class="cls-1" d="M56.36,248.17v10.8c2.04-.14,4.06-.17,6.03-.46,1.11-.17,1.8-1.11,2.07-2.23,.19-.81,.32-1.64,.52-2.45,.04-.18,.26-.31,.4-.47,.11,.18,.31,.36,.31,.54,.02,1.99,.01,3.97,.01,5.95-1.49,0-2.81,0-4.12,0-3.73-.02-7.45-.04-11.18-.06-.17,0-.35,.02-.51,.07-3.57,1.27-6.99-.89-7.41-4.67-.16-1.41-.25-2.83-.55-4.2-.19-.84-.62-1.68-1.16-2.35-.32-.4-1.04-.48-1.75-.78-.03,.52-.06,.82-.06,1.12,0,2.89,.02,5.78,.04,8.67,0,1.07,.17,1.24,1.25,1.31,.34,.02,.69,.04,1.03,.12,.12,.03,.27,.25,.27,.37,0,.12-.18,.28-.32,.33-.18,.06-.4,.04-.6,.04-2.54,0-5.09,.01-7.63-.01-.31,0-.62-.23-.92-.35,.31-.15,.61-.38,.93-.42,1.27-.19,1.37-.21,1.37-1.31,0-6.21,0-12.42-.02-18.63,0-1.1-.15-1.21-1.24-1.32-.2-.02-.42,.02-.6-.05-.16-.06-.38-.23-.39-.36,0-.13,.19-.32,.34-.4,.14-.08,.34-.07,.51-.06,3.26,.05,6.53,0,9.79,.18,2.96,.17,4.54,1.77,4.82,4.49,.24,2.34-1.04,4.43-3.31,5.33-.77,.31-1.58,.5-2.39,.76,.03,.05,.05,.11,.08,.11,3.09,.66,4.46,2.06,5.01,5.28,.26,1.51,.35,3.04,.59,4.55,.12,.76,.41,1.49,1.16,1.64-.04-.61-.16-1.19-.06-1.73,.03-.17,.88-.42,1.01-.29,.42,.42,.68,1,1.07,1.63,.78,.02,1.09-.25,1.1-1.31,.02-2.22,0-4.45,0-6.67,0-3.81,0-7.63,0-11.44,0-1.51-.05-1.54-1.51-1.69-.25-.03-.47-.28-.71-.43,.26-.14,.52-.39,.78-.4,3.47-.06,6.93-.09,10.4-.12,1.3-.01,2.59,0,4.04,0,.12,1.87,.25,3.79,.36,5.7,0,.14-.21,.39-.33,.4-.14,0-.38-.17-.43-.32-.12-.38-.15-.79-.23-1.19-.34-1.84-1.38-3.08-3.26-3.36-1.49-.22-3.02-.19-4.59-.28v9.65c1.21-.19,2.4-.3,3.54-.59,.34-.09,.66-.64,.8-1.04,.24-.67,.31-1.4,.49-2.1,.08-.31,.22-.6,.34-.9,.1,0,.21,0,.31,0,.07,.32,.21,.64,.21,.96,0,2.8,0,5.6-.05,8.4,0,.23-.24,.45-.36,.68-.15-.21-.39-.39-.44-.62-.19-.84-.32-1.7-.47-2.55-.16-.91-.73-1.37-1.61-1.42-.89-.05-1.78-.01-2.77-.01Zm-17.38-.99c1.52-.02,2.74-.41,3.31-1.78,.81-1.95,.89-3.97,.26-6-.3-.98-1.04-1.49-2.04-1.63-.94-.13-1.43,.25-1.48,1.21-.04,.83-.05,1.67-.05,2.5,0,1.87,0,3.73,0,5.69Z"/><path class="cls-1" d="M157.29,213.84c-1.78,0-3.44-.01-5.11,.02-.15,0-.41,.31-.41,.48-.03,2.54-.04,5.08,.01,7.63,0,.27,.37,.59,.64,.77,.22,.14,.57,.08,.84,.17,.16,.05,.28,.23,.42,.35-.15,.1-.3,.29-.45,.29-2.31,.02-4.62,.03-6.93,0-.22,0-.43-.26-.64-.39,.21-.11,.4-.29,.62-.31,1.44-.18,1.46-.19,1.46-1.65,0-4.8,0-9.59,0-14.39,0-1.46-.03-1.49-1.46-1.66-.22-.03-.41-.19-.62-.29,.2-.11,.41-.3,.61-.3,2.25-.02,4.51-.02,6.76,0,.22,0,.43,.25,.65,.38-.22,.13-.42,.36-.65,.39-1.26,.17-1.29,.17-1.29,1.43,0,1.82-.02,3.64,.02,5.46,0,.25,.24,.7,.37,.7,1.69,.05,3.38,.03,5.14,.03,0-2.24,.03-4.34-.01-6.44-.01-.74-.4-1.24-1.25-1.26-.24,0-.46-.23-.7-.36,.26-.11,.52-.33,.78-.33,2.48,.02,4.95,.1,7.43,.1,1.34,0,2.69-.18,4.03-.2,3.06-.03,6.11-.01,9.3-.01,.11,1.52,.23,3.06,.32,4.6,0,.14-.19,.3-.3,.44-.15-.11-.35-.19-.42-.34-.1-.2-.09-.45-.13-.67-.32-1.79-1.18-2.75-2.97-3.02-1.1-.17-2.24-.12-3.36-.1-.18,0-.5,.37-.51,.57-.04,2.19-.02,4.39-.03,6.59,0,.46,.2,.62,.63,.59,.23-.02,.46-.02,.69-.04,2.2-.15,2.51-.44,2.84-2.66,.03-.17,.03-.36,.1-.51,.1-.19,.26-.34,.39-.51,.12,.2,.34,.4,.34,.59,.01,2.4,0,4.79-.03,7.19,0,.18-.2,.35-.3,.53-.16-.17-.4-.32-.45-.52-.16-.67-.24-1.36-.37-2.04-.14-.76-.6-1.17-1.37-1.19-.77-.02-1.55,0-2.4,0v8.77c1.82-.07,3.66,.23,5.44-.36,1.15-.38,1.5-1.43,1.73-2.51,.12-.58,.28-1.15,.42-1.73,.11,.02,.22,.04,.33,.05v5.41c-1.33,0-2.67,0-4.01,0-3.18,0-6.35-.03-9.53-.03-2.56,0-5.12,.02-7.69,.04-.17,0-.36,0-.51-.05-.14-.05-.26-.19-.38-.29,.12-.13,.23-.33,.38-.39,1.58-.53,1.58-.52,1.58-2.19,0-2.22,0-4.45,0-6.82Zm8.27,.15c0-.98,0-1.96,0-2.94,0-1.56,.02-3.12-.02-4.67,0-.43,.05-1.01-.62-1.05-.83-.05-1.67-.06-2.5-.07-.86,0-1.15,.5-1.15,1.28,0,4.9-.01,9.81,.02,14.71,0,1.37,.8,1.94,2.17,1.7,.23-.04,.45-.1,.68-.12,1.25-.13,1.41-.28,1.41-1.56,.01-2.42,0-4.85,0-7.27Z"/><path class="cls-1" d="M25.49,216.25c.81-3.03,1.62-6.07,2.44-9.1,.23-.86,.28-2,.85-2.46,.53-.43,1.66-.14,2.52-.15,3.58-.03,7.15-.05,10.73-.07,.2,0,.42-.05,.6,.01,.24,.09,.44,.26,.66,.4-.21,.13-.4,.32-.62,.37-1.36,.26-1.37,.25-1.36,1.66,.01,3.84,.02,7.68,.05,11.53,0,.54,.08,1.1,.21,1.63,.39,1.58,1.41,2.4,2.95,2.42,1.57,.02,2.52-.65,2.9-2.3,.28-1.2,.42-2.45,.45-3.68,.06-3.26,.02-6.53,.02-9.79,0-1.25-.05-1.3-1.29-1.41-.2-.02-.41-.04-.58-.13-.12-.07-.23-.25-.24-.39,0-.08,.18-.26,.28-.26,1.56,0,3.11,.02,4.67,.05,.14,0,.27,.1,.41,.15-.05,.1-.09,.2-.14,.3-.34,.06-.69,.17-1.03,.18-.86,.03-1.19,.4-1.18,1.3,.04,3.7,.02,7.4,.01,11.09,0,1.55-.18,3.06-1.1,4.38-.62,.89-1.45,1.48-2.5,1.76-1.4,.37-2.81,.41-4.19-.04-1.75-.57-2.94-1.74-3.3-3.57-.21-1.07-.32-2.18-.33-3.27-.04-3.26-.01-6.53-.02-9.79,0-1.64-.34-1.97-1.96-1.88-.49,.03-.97,.09-1.46,.09-.83,0-1.18,.38-1.17,1.23,.03,2.89,0,5.78,0,8.67,0,2.14,0,4.28,0,6.41,0,1.07,.17,1.23,1.26,1.27,.23,0,.48-.05,.69,.02,.26,.08,.49,.26,.73,.4-.23,.12-.45,.31-.69,.36-.31,.06-.63,.02-.95,.02-2.17,0-4.33,.02-6.5-.02-.33,0-.66-.25-.99-.38,.32-.12,.63-.34,.95-.35,1.59-.05,1.65-.03,1.66-1.57,.03-4.51,.02-9.01,.02-13.52,0-.05-.04-.09-.14-.31-.2,.6-.38,1.06-.51,1.54-1.11,4.18-2.2,8.37-3.32,12.56-.16,.61-.42,1.2-.64,1.81-.11,0-.23,0-.34,.01-.19-.42-.44-.82-.57-1.26-1.32-4.39-2.63-8.79-3.94-13.19-.06-.19-.12-.38-.31-.58-.02,.2-.07,.39-.07,.59,0,4.05,0,8.09,0,12.14,0,1.6,.02,1.58,1.62,1.76,.26,.03,.51,.26,.76,.4-.26,.12-.51,.33-.77,.34-1.41,.03-2.83,.04-4.24,0-.3,0-.59-.21-.88-.33,.27-.14,.53-.38,.8-.4,1.63-.09,1.69-.07,1.69-1.67,.02-4.82,0-9.65-.03-14.47,0-1.25-.16-1.37-1.41-1.44-.14,0-.31,.04-.43-.02-.18-.09-.32-.25-.48-.38,.17-.12,.34-.34,.51-.34,1.73-.03,3.47-.04,5.2,.02,.23,0,.58,.42,.66,.7,.86,2.91,1.68,5.82,2.51,8.74,.21,.74,.45,1.48,.68,2.22,.07,0,.13,.01,.2,.02Z"/><path class="cls-1" d="M123.38,213.39c.06,.11,.07,.16,.08,.16,2.87,.56,3.9,2.58,4.19,5.22,.12,1.09,.27,2.18,.51,3.24,.09,.4,.48,.73,.72,1.09,.05-.63,0-1.15,.18-1.57,.06-.15,.91-.21,.97-.09,.23,.44,.43,.99,.35,1.45-.06,.36-.53,.69-.87,.95-.18,.14-.5,.13-.75,.15-2.57,.17-4.81-1.71-5.14-4.27-.19-1.43-.37-2.86-.71-4.26-.3-1.2-.9-1.54-2.22-1.61-.03,.21-.09,.42-.09,.64,.01,2.43,.06,4.85,.04,7.28,0,.77,.33,1.04,1.03,1.05,.12,0,.24-.02,.34,.03,.28,.12,.54,.27,.81,.4-.26,.11-.53,.31-.79,.31-3.03,0-6.07-.02-9.1-.03-1.59,0-3.18,0-4.76,.01-.17,0-.36,.06-.51,0-.24-.09-.45-.25-.67-.38,.2-.13,.38-.32,.6-.37,.33-.08,.69-.07,1.03-.08,.49-.02,.67-.22,.52-.72-.4-1.33-.76-2.67-1.19-3.98-.07-.22-.43-.46-.67-.48-1.1-.05-2.2-.06-3.29,0-.26,.01-.63,.29-.72,.53-.43,1.16-.79,2.35-1.15,3.54-.27,.89-.14,1.03,.79,1.18,.38,.06,.75,.26,1.12,.39-.39,.13-.78,.36-1.17,.38-1.15,.05-2.31,.04-3.47,0-.24,0-.47-.2-.71-.31,.21-.14,.42-.4,.63-.4,1.03,0,1.53-.5,1.84-1.46,1.75-5.35,3.55-10.68,5.34-16.01,.12-.37,.29-.72,.66-1.09,.16,.34,.36,.67,.49,1.03,1.81,5.27,3.61,10.54,5.41,15.81,.52,1.52,1.21,1.95,2.82,1.66,.27-.05,.49-.44,.69-.71,.07-.09,.03-.28,.03-.42,0-5,0-9.99,0-14.99,0-1.22-.06-1.24-1.24-1.38-.25-.03-.48-.26-.72-.4,.23-.12,.46-.36,.69-.36,2.92,.02,5.84-.02,8.75,.15,3.8,.23,4.81,3.84,3.51,6.18-.57,1.04-1.48,1.68-2.57,2.07-.51,.18-1.05,.3-1.62,.47Zm-2.77-.43c1.41,.14,2.45-.38,2.9-1.51,.62-1.55,.68-3.15,.18-4.75-.29-.93-1.01-1.39-1.96-1.41-.66-.01-1.05,.25-1.06,.95-.01,.58-.06,1.15-.06,1.73,0,1.67,0,3.33,0,4.99Zm-14.86-1.87c-.08,0-.16,0-.25-.01-.58,1.82-1.15,3.64-1.75,5.52h3.79c-.62-1.89-1.21-3.7-1.79-5.5Z"/><path class="cls-1" d="M91.5,237.74c-.05,.4-.08,.56-.09,.73,0,2.88,0,5.77,0,8.92,1.27-.19,2.46-.29,3.6-.59,.36-.09,.7-.68,.84-1.11,.24-.7,.28-1.47,.48-2.19,.07-.26,.33-.47,.5-.7,.11,.27,.32,.53,.32,.8,0,2.08-.05,4.16-.07,6.24,0,.78,.05,1.56,.03,2.34,0,.2-.22,.4-.34,.6-.16-.17-.41-.32-.46-.52-.19-.87-.3-1.76-.46-2.64-.15-.84-.65-1.36-1.51-1.41-.94-.05-1.89-.01-2.94-.01,0,.47,0,.9,0,1.32,0,2.83,.02,5.66-.01,8.49,0,.7,.21,.91,.88,.87,1.44-.08,2.89-.07,4.33-.15,1.51-.09,2.59-1,2.97-2.47,.2-.78,.31-1.59,.5-2.37,.05-.2,.29-.35,.44-.53,.1,.19,.28,.37,.28,.56,0,1.85-.03,3.7-.04,5.54,0,.59-.4,.52-.78,.51-2.83-.07-5.66-.17-8.49-.21-1.99-.03-3.99,.01-5.98,.02-.23,0-.47,.02-.69-.04-.13-.04-.35-.25-.32-.31,.06-.15,.21-.29,.36-.39,.08-.06,.22-.05,.34-.06,1.71-.24,1.76-.28,1.76-1.99,0-6.01-.04-12.01-.02-18.02,0-.93-.41-1.24-1.25-1.22-.17,0-.37,.03-.51-.03-.16-.07-.28-.24-.42-.36,.12-.14,.22-.33,.38-.4,.21-.08,.45-.07,.68-.08,4.62-.06,9.24-.11,13.85-.16,.05,0,.11,.03,.27,.08,.1,1.21,.2,2.47,.3,3.73,.05,.63,.12,1.27,.11,1.9,0,.16-.25,.32-.38,.48-.14-.13-.35-.23-.4-.39-.11-.32-.14-.68-.19-1.02-.32-1.95-1.39-3.2-3.32-3.5-1.49-.23-3.02-.19-4.55-.27Z"/><path class="cls-1" d="M80.53,252.23c1.24,0,2.48-.02,3.73,.02,.23,0,.45,.23,.67,.35-.22,.13-.43,.36-.66,.39-1.75,.19-1.75,.17-1.75,1.94,0,.35-.05,.7,0,1.04,.23,1.24-.38,1.94-1.38,2.56-3.54,2.21-7.29,2.3-10.31,.07-2.6-1.92-3.99-4.61-4.37-7.78-.4-3.28-.07-6.47,1.66-9.37,1.88-3.15,4.57-5.07,8.36-4.87,1.17,.06,2.34,.56,3.45,.99,.71,.28,1.18,.39,1.49-.46,.06-.17,.32-.26,.49-.38,.08,.19,.24,.39,.24,.58,.02,2.13,.03,4.27,0,6.4,0,.24-.23,.47-.35,.71-.2-.21-.51-.39-.58-.63-.32-1.16-.48-2.38-.86-3.52-.52-1.57-1.47-2.78-3.3-2.87-1.93-.09-3.23,.92-4.06,2.57-.9,1.78-1.22,3.73-1.33,5.69-.17,3.2-.23,6.42,.67,9.54,.29,1.01,.79,1.98,1.35,2.87,.3,.47,.89,.84,1.43,1.05,1.7,.66,3.02-.13,3.22-1.96,.12-1.11,.07-2.25,0-3.37-.02-.27-.44-.59-.75-.74-.26-.13-.63,.01-.94-.06-.24-.05-.45-.25-.67-.38,.22-.15,.43-.41,.65-.42,1.3-.04,2.6-.02,3.89-.02,0,.02,0,.04,0,.06Z"/><path class="cls-1" d="M94.33,214.1c-.05,3-.93,5.68-3.15,7.8-2.87,2.72-7.11,2.63-9.88-.19-3.65-3.7-4.09-10.17-.97-14.34,3.61-4.82,10.44-3.97,12.94,1.6,.73,1.63,1.09,3.34,1.06,5.13Zm-4.55-.1c-.05-.86,0-2.01-.19-3.11-.26-1.52-.55-3.08-1.11-4.51-.7-1.77-2.74-1.95-3.89-.44-.44,.58-.78,1.29-1,1.99-.9,2.8-.88,5.68-.59,8.57,.18,1.84,.49,3.68,1.5,5.28,.29,.46,.74,.93,1.22,1.15,1.24,.57,2.43-.01,2.98-1.37,.95-2.35,1.03-4.83,1.09-7.58Z"/><path class="cls-1" d="M283.04,213.95c.05,2.98-.8,5.51-2.77,7.63-2.71,2.91-7.12,3.05-10.01,.33-4.13-3.9-4.37-11.16-.51-15.31,3.32-3.58,8.86-3.04,11.59,1.14,1.26,1.93,1.76,4.06,1.7,6.22Zm-11.44-.32c.04,2.75,.24,5.39,1.43,7.84,.49,1.02,1.23,1.71,2.4,1.66,1.2-.05,1.89-.85,2.16-1.93,.34-1.37,.66-2.75,.79-4.15,.28-3.17,.2-6.35-.63-9.45-.46-1.73-1.31-2.61-2.48-2.63-1.56-.03-2.17,1.1-2.69,2.3-.9,2.06-.95,4.26-.98,6.37Z"/><path class="cls-1" d="M225.53,214.54c-.06,2.63-.98,5.3-3.24,7.44-2.65,2.51-6.95,2.5-9.57-.06-3.75-3.65-4.35-10-1.36-14.31,3.44-4.96,10.28-4.39,12.98,1.08,.85,1.72,1.21,3.54,1.19,5.84Zm-4.64-.28c0-.75,.02-1.5,0-2.25-.02-.6-.03-1.22-.16-1.81-.28-1.26-.51-2.56-.99-3.74-.77-1.88-2.9-2.06-4.04-.39-.45,.65-.79,1.42-1.01,2.18-.81,2.88-.88,5.82-.41,8.75,.24,1.52,.75,3.01,1.25,4.47,.36,1.07,1.2,1.72,2.38,1.65,1.21-.06,1.78-.89,2.15-1.95,.78-2.25,.88-4.58,.84-6.92Z"/><path class="cls-1" d="M194.76,214.08c-.03,2.23-.53,4.35-1.81,6.27-2.86,4.27-8.1,4.72-11.6,.97-3.64-3.9-3.52-11.09,.25-14.87,3.33-3.34,8.47-2.88,11.21,.98,1.41,1.99,1.93,4.22,1.96,6.65Zm-11.7-.54c.05,.01,.11,.03,.16,.04,.09,1.18,.04,2.39,.29,3.53,.34,1.56,.83,3.11,1.38,4.61,.36,.97,1.22,1.47,2.27,1.4,1.07-.07,1.72-.73,2.05-1.72,.12-.36,.24-.71,.33-1.08,.84-3.32,.85-6.69,.41-10.06-.16-1.25-.51-2.48-.9-3.68-.3-.94-1.01-1.54-2.04-1.63-1.02-.09-1.71,.46-2.21,1.26-.33,.53-.65,1.12-.78,1.73-.38,1.86-.65,3.73-.97,5.6Z"/><path class="cls-1" d="M22.89,248.58c0,2.22,0,4.39,0,6.55,0,.87,.03,1.73,.04,2.6,0,.81,.37,1.23,1.21,1.22,.32,0,.65-.02,.95,.06,.2,.06,.37,.27,.55,.42-.2,.13-.39,.37-.59,.37-1.13,.02-2.25-.04-3.38-.04-1.65,0-3.29,.04-4.94,.02-.27,0-.53-.19-.8-.29,.25-.17,.48-.46,.76-.5,1.65-.26,1.68-.28,1.68-1.96,0-5.92,0-11.84,0-17.77,0-1.27-.06-1.34-1.34-1.5-.2-.03-.41-.03-.59-.11-.13-.06-.24-.24-.26-.38-.01-.08,.15-.24,.27-.29,.15-.07,.34-.09,.51-.09,4.76,0,9.52,0,14.36,0,.03,.21,.08,.43,.1,.64,.15,1.58,.3,3.16,.41,4.74,.02,.24-.14,.5-.22,.75-.18-.19-.36-.37-.53-.56-.03-.04-.02-.11-.04-.17-.96-3.82-1.99-4.62-5.93-4.54-.71,.01-1.42,.08-2.17,.13v9.68c1.2,.12,2.39,.15,3.47-.36,.4-.19,.76-.72,.91-1.17,.26-.82,.33-1.69,.53-2.54,.05-.2,.28-.36,.43-.54,.11,.2,.32,.41,.32,.61,.02,2.92,.03,5.83,0,8.75,0,.22-.26,.43-.4,.65-.16-.21-.41-.41-.46-.64-.16-.73-.17-1.49-.36-2.22-.31-1.21-.85-1.6-2.12-1.62-.63-.01-1.27,.01-1.91,.02-.11,0-.22,.03-.47,.07Z"/><path class="cls-1" d="M176.22,236.65c.17,.44,.37,.88,.52,1.33,2.09,6.36,4.2,12.71,6.26,19.08,.39,1.21,.96,2.01,2.38,1.84,.19-.02,.42,.26,.64,.41-.2,.15-.41,.44-.61,.44-1.18,.03-2.37-.02-3.55-.01-1.56,0-3.12,.04-4.68,.06-.2,0-.42,.04-.6-.03-.22-.08-.4-.25-.6-.38,.2-.16,.39-.34,.62-.47,.11-.07,.28-.04,.43-.05,1.85-.07,1.68,0,1.22-1.8-.34-1.31-.75-2.61-1.08-3.92-.13-.51-.37-.7-.9-.69-1.24,.04-2.48,.03-3.73,.02-.47,0-.73,.18-.87,.64-.45,1.55-.93,3.09-1.4,4.64-.22,.71,.08,1.04,.78,1.1,.17,.01,.36-.01,.52,.04,.34,.13,.67,.3,1,.45-.36,.14-.71,.37-1.08,.41-.69,.07-1.39,.02-2.08,.02-.72,0-1.45,.04-2.17-.02-.29-.02-.56-.25-.84-.39,.28-.15,.55-.31,.83-.45,.07-.04,.17-.03,.26-.03,.88,.02,1.36-.43,1.63-1.25,1.25-3.93,2.53-7.86,3.79-11.79,.88-2.75,1.74-5.5,2.62-8.25,.11-.34,.27-.66,.41-.99h.31Zm.43,14.83c-.74-2.38-1.44-4.62-2.14-6.86-.08,0-.15,0-.23-.01-.69,2.26-1.38,4.52-2.1,6.88h4.47Z"/><path class="cls-1" d="M63.15,204.7c.33-.07,.66-.19,.99-.2,3.9-.05,7.8-.08,11.69-.09,.2,0,.57,.28,.59,.46,.15,1.32,.24,2.64,.31,3.97,.01,.21-.17,.43-.27,.64-.17-.19-.45-.37-.48-.57-.37-2.81-1.97-3.53-4.34-3.62q-2.6-.09-2.6,2.46c0,1.5,.04,3-.02,4.5-.03,.73,.26,.93,.91,.83,.11-.02,.23-.02,.35-.03,2.24-.15,2.54-.42,2.89-2.62,.06-.37,.2-.73,.3-1.1,.11,0,.22,0,.33,0,.07,.29,.21,.58,.21,.87,0,2.28,0,4.56-.04,6.84,0,.22-.23,.44-.36,.66-.14-.19-.35-.37-.4-.58-.15-.67-.24-1.36-.37-2.04-.14-.72-.58-1.12-1.32-1.14-.77-.02-1.55,0-2.4,0v8.77c1.79-.06,3.6,.19,5.36-.34,.85-.26,1.37-.95,1.6-1.81,.15-.56,.21-1.14,.37-1.69,.08-.26,.3-.48,.45-.72,.09,.24,.25,.49,.26,.73,.02,1.36-.03,2.71,0,4.07,.02,.65-.25,.76-.83,.74-2.63-.09-5.25-.15-7.88-.19-1.56-.02-3.12,.03-4.68,0-.27,0-.53-.2-.8-.31,.24-.13,.48-.34,.74-.38,1.26-.17,1.38-.28,1.38-1.59,0-4.82,0-9.64,0-14.47,0-1.31,0-1.3-1.33-1.51-.21-.03-.4-.15-.6-.23,0-.12-.01-.23-.02-.35Z"/><path class="cls-1" d="M239.97,210.97c-.18-.49-.36-.88-.48-1.29-.25-.88-.38-1.81-.73-2.66-.48-1.2-1.36-2.02-2.74-2.05-1.37-.03-2.53,.52-3.16,1.75-.5,.99-.94,2.07-1.12,3.15-.52,3.04-.49,6.1,.12,9.13,.18,.92,.55,1.83,1.02,2.64,.31,.53,.89,1.02,1.46,1.27,1.43,.63,2.55,0,2.79-1.54,.14-.9,.09-1.84,.02-2.76-.02-.24-.42-.5-.7-.66-.18-.1-.46,.01-.68-.05-.22-.06-.4-.22-.6-.34,.19-.12,.38-.34,.58-.34,.84-.02,1.67,.02,2.51,.03,1.33,0,2.66-.01,3.99,.02,.2,0,.39,.2,.58,.31-.18,.11-.34,.3-.54,.33-1.52,.27-1.65,.28-1.49,1.85,.15,1.57-.46,2.39-1.81,3.08-4.37,2.22-9,.82-11.06-3.67-1.88-4.08-1.57-8.13,1.11-11.8,2.31-3.17,6.01-4,9.55-2.31,.53,.25,.91,.31,1.19-.31,.07-.16,.24-.27,.38-.42,.35,.57,.27,6.08-.19,6.62Z"/><path class="cls-1" d="M144.36,204.59c.29,1.2,.05,5.94-.44,6.54-.18-.55-.3-.99-.46-1.42-.4-1.07-.65-2.24-1.25-3.19-1.28-2.02-3.93-1.94-5.26,.07-1.21,1.83-1.46,3.93-1.64,6.03-.19,2.11-.09,4.22,.48,6.27,.24,.85,.6,1.69,1.07,2.44,1.16,1.86,3.64,2.11,5.24,.6,1.06-1,1.48-2.31,1.85-3.66,.13-.45,.28-.9,.42-1.35,.09,0,.17,0,.26,0,.09,.18,.28,.36,.27,.54-.08,2.02-.18,4.03-.28,6.05,0,.04-.07,.08-.2,.22-.28-.35-.55-.69-.82-1.03-.26-.32-.52-.56-.92-.18-2.32,2.16-6.28,1.69-8.9-.76-4.25-3.98-4.27-11.6-.03-15.59,2.37-2.24,6.34-2.61,8.49-1.04,.67,.49,.72,.42,2.13-.56Z"/><path class="cls-1" d="M265.2,216.77c.44,.6,.41,5.93,.07,7.03-.48-.55-.91-1.04-1.34-1.55-.16,.08-.27,.12-.35,.19-2.45,2.17-5.77,1.65-7.96,.17-5.69-3.82-5.7-13.67,.04-17.27,2.34-1.46,4.82-1.69,7.29-.21,.68,.41,1.23,.4,1.74-.25,.11-.14,.3-.21,.41-.27v6.35l-.4,.06c-.13-.34-.28-.68-.38-1.04-.25-.82-.42-1.68-.74-2.48-.56-1.41-1.52-2.39-3.16-2.41-1.67-.03-2.57,1.03-3.18,2.39-1,2.23-1.23,4.62-1.21,7.03,.02,2.15,.23,4.27,1.23,6.23,.88,1.71,2.14,2.4,3.86,2.09,.99-.18,1.84-.67,2.3-1.55,.55-1.03,.92-2.16,1.36-3.25,.14-.36,.25-.73,.43-1.26Z"/><path class="cls-1" d="M60.93,209.39c-.17-.26-.36-.51-.5-.79-.33-.67-.58-1.38-.95-2.02-.77-1.32-2-1.68-3.43-1.42-.91,.16-1.61,.65-1.9,1.57-.36,1.12-.15,2.17,.72,2.94,.86,.76,1.84,1.38,2.78,2.05,.92,.65,1.9,1.21,2.77,1.92,2.09,1.71,2.65,4.61,1.46,7.15-1.05,2.23-3.56,3.49-6.15,3-.98-.19-1.94-.54-2.88-.89-.58-.22-.92-.2-1.1,.46-.06,.2-.28,.36-.43,.54-.09-.24-.27-.49-.26-.73,.02-1.61,.06-3.23,.13-4.84,0-.22,.18-.44,.28-.66,.18,.19,.44,.35,.52,.57,.32,.89,.47,1.86,.91,2.68,.77,1.41,2.02,2.2,3.69,2.13,1.25-.05,2.35-.92,2.69-2.1,.39-1.34,0-2.43-1.19-3.22-1.32-.88-2.7-1.67-3.98-2.61-2.09-1.52-2.97-3.64-2.64-6.2,.44-3.35,3.37-5.33,6.67-4.55,.45,.11,.89,.26,1.31,.44,.51,.22,.93,.37,1.11-.38,.03-.11,.26-.27,.37-.25,.11,.02,.28,.23,.28,.35,.02,1.57,.01,3.15,.01,4.72-.09,.04-.19,.09-.28,.13Z"/><path class="cls-1" d="M195.57,204.82c.19-.09,.39-.26,.58-.27,2.25-.02,4.5-.01,6.87,.2-.21,.18-.43,.51-.64,.51-.81,0-.87,.51-.87,1.1,0,3.52,0,7.05,0,10.57,0,1.59,.03,3.18,.05,4.76,0,.31,.03,.62,.05,1.14,1.48-.14,2.89-.18,4.27-.43,1.05-.19,1.63-1.03,1.88-2.06,.18-.74,.36-1.47,.54-2.21,.09,0,.18,0,.27,0,.07,.24,.19,.48,.19,.71,0,1.41-.05,2.83-.06,4.24,0,.47-.21,.59-.64,.58-3.93-.05-7.86-.09-11.78-.13-.14,0-.31,.01-.43-.05-.15-.09-.27-.24-.4-.37,.13-.1,.24-.25,.38-.29q1.71-.47,1.71-2.22c0-4.56,0-9.13,0-13.69q0-1.56-1.59-1.75c-.11-.01-.21-.07-.31-.11l-.08-.25Z"/><path class="cls-1" d="M248.55,213.9c0,2.45,0,4.91,0,7.36,0,1.36,.02,1.35,1.37,1.57,.23,.04,.43,.26,.64,.4-.23,.11-.46,.3-.69,.31-2.19,.03-4.39,.03-6.58,.01-.26,0-.52-.21-.78-.32,.25-.13,.49-.34,.75-.37,1.09-.12,1.25-.22,1.26-1.31,.02-5.11,.01-10.22,.03-15.33,0-.66-.27-.95-.91-.96-.26,0-.52-.04-.76-.12-.09-.03-.18-.2-.2-.31,0-.07,.12-.21,.21-.23,.16-.05,.34-.05,.51-.05,2.08,0,4.16-.01,6.24,.01,.25,0,.5,.23,.74,.35-.23,.12-.47,.34-.7,.33-.95-.03-1.15,.46-1.14,1.3,.04,2.45,.01,4.91,.01,7.36Z"/><path class="cls-1" d="M167.46,250.92h-7.03v-3.46h7.03v3.46Z"/><path class="cls-1" d="M190.43,256.66c-.02,1.43-.91,2.41-2.17,2.39-1.27-.02-2.22-1.1-2.19-2.5,.02-1.39,1.03-2.5,2.25-2.47,1.2,.03,2.13,1.16,2.12,2.58Z"/></svg>